<svg width="620" height="620" viewBox="0 0 620 620" fill="none" xmlns="http://www.w3.org/2000/svg">
<mask id="mask0" mask-type="alpha" maskUnits="userSpaceOnUse" x="0" y="0" width="620" height="620">
<circle cx="309.892" cy="309.893" r="225.848" transform="rotate(30.987 309.892 309.893)" fill="#F6F3ED"/>
</mask>
<g mask="url(#mask0)">
<rect x="840.648" y="329.963" width="7.72872" height="895.384" transform="rotate(120.987 840.648 329.963)" fill="#EAB651" fill-opacity="0.5"/>
<rect x="808.331" y="383.766" width="7.72872" height="895.384" transform="rotate(120.987 808.331 383.766)" fill="#EAB651" fill-opacity="0.5"/>
<rect x="776.032" y="437.569" width="7.72872" height="895.384" transform="rotate(120.987 776.032 437.569)" fill="#EAB651" fill-opacity="0.5"/>
<rect x="743.717" y="491.372" width="7.72872" height="895.384" transform="rotate(120.987 743.717 491.372)" fill="#EAB651" fill-opacity="0.5"/>
<rect x="711.399" y="545.174" width="7.72872" height="895.384" transform="rotate(120.987 711.399 545.174)" fill="#EAB651" fill-opacity="0.5"/>
<rect x="679.102" y="598.977" width="7.72872" height="895.384" transform="rotate(120.987 679.102 598.977)" fill="#EAB651" fill-opacity="0.5"/>
<rect x="646.781" y="652.78" width="7.72872" height="895.384" transform="rotate(120.987 646.781 652.78)" fill="#EAB651" fill-opacity="0.5"/>
<rect x="549.853" y="814.188" width="7.72872" height="895.384" transform="rotate(120.987 549.853 814.188)" fill="#EAB651" fill-opacity="0.5"/>
<rect x="614.463" y="706.582" width="7.72872" height="895.384" transform="rotate(120.987 614.463 706.582)" fill="#EAB651" fill-opacity="0.5"/>
<rect x="517.529" y="867.99" width="7.72872" height="895.384" transform="rotate(120.987 517.529 867.99)" fill="#EAB651" fill-opacity="0.5"/>
<rect x="436.764" y="1002.5" width="7.72872" height="895.384" transform="rotate(120.987 436.764 1002.5)" fill="#EAB651" fill-opacity="0.5"/>
<rect x="582.168" y="760.385" width="7.72872" height="895.384" transform="rotate(120.987 582.168 760.385)" fill="#EAB651" fill-opacity="0.5"/>
<rect x="485.229" y="921.793" width="7.72872" height="895.384" transform="rotate(120.987 485.229 921.793)" fill="#EAB651" fill-opacity="0.5"/>
<rect x="404.448" y="1056.3" width="7.72872" height="895.384" transform="rotate(120.987 404.448 1056.3)" fill="#EAB651" fill-opacity="0.5"/>
<rect x="824.498" y="356.865" width="7.72872" height="895.384" transform="rotate(120.987 824.498 356.865)" fill="#EAB651" fill-opacity="0.5"/>
<rect x="792.183" y="410.667" width="7.72872" height="895.384" transform="rotate(120.987 792.183 410.667)" fill="#EAB651" fill-opacity="0.5"/>
<rect x="759.867" y="464.47" width="7.72872" height="895.384" transform="rotate(120.987 759.867 464.47)" fill="#EAB651" fill-opacity="0.5"/>
<rect x="727.562" y="518.273" width="7.72872" height="895.384" transform="rotate(120.987 727.562 518.273)" fill="#EAB651" fill-opacity="0.5"/>
<rect x="695.252" y="572.076" width="7.72872" height="895.384" transform="rotate(120.987 695.252 572.076)" fill="#EAB651" fill-opacity="0.5"/>
<rect x="662.932" y="625.878" width="7.72872" height="895.384" transform="rotate(120.987 662.932 625.878)" fill="#EAB651" fill-opacity="0.5"/>
<rect x="630.636" y="679.681" width="7.72872" height="895.384" transform="rotate(120.987 630.636 679.681)" fill="#EAB651" fill-opacity="0.5"/>
<rect x="533.699" y="841.089" width="7.72872" height="895.384" transform="rotate(120.987 533.699 841.089)" fill="#EAB651" fill-opacity="0.5"/>
<rect x="452.916" y="975.596" width="7.72872" height="895.384" transform="rotate(120.987 452.916 975.596)" fill="#EAB651" fill-opacity="0.5"/>
<rect x="598.311" y="733.483" width="7.72872" height="895.384" transform="rotate(120.987 598.311 733.483)" fill="#EAB651" fill-opacity="0.5"/>
<rect x="501.385" y="894.892" width="7.72872" height="895.384" transform="rotate(120.987 501.385 894.892)" fill="#EAB651" fill-opacity="0.5"/>
<rect x="420.601" y="1029.4" width="7.72872" height="895.384" transform="rotate(120.987 420.601 1029.4)" fill="#EAB651" fill-opacity="0.5"/>
<rect x="565.995" y="787.287" width="7.72872" height="895.384" transform="rotate(120.987 565.995 787.287)" fill="#EAB651" fill-opacity="0.5"/>
<rect x="469.062" y="948.695" width="7.72872" height="895.384" transform="rotate(120.987 469.062 948.695)" fill="#EAB651" fill-opacity="0.5"/>
</g>
</svg>