<svg width="33" height="38" viewBox="0 0 33 38" fill="none" xmlns="http://www.w3.org/2000/svg">
<path d="M6.18306 12.2727V37H0.955078V12.2727H6.18306Z" fill="white"/>
<path d="M26.8802 20.2656C26.7112 19.678 26.4738 19.1589 26.1679 18.7081C25.862 18.2493 25.4877 17.8629 25.045 17.549C24.6104 17.227 24.1113 16.9815 23.5479 16.8125C22.9925 16.6435 22.3767 16.559 21.7006 16.559C20.4368 16.559 19.326 16.8729 18.3682 17.5007C17.4184 18.1286 16.6778 19.0421 16.1466 20.2415C15.6153 21.4328 15.3497 22.8897 15.3497 24.6122C15.3497 26.3348 15.6113 27.7997 16.1345 29.0071C16.6577 30.2145 17.3982 31.1361 18.3561 31.772C19.3139 32.3999 20.4449 32.7138 21.7488 32.7138C22.9321 32.7138 23.9423 32.5045 24.7794 32.0859C25.6246 31.6593 26.2685 31.0597 26.7112 30.2869C27.162 29.5142 27.3873 28.6006 27.3873 27.5462L28.4498 27.7031H22.0748V23.767H32.4221V26.8821C32.4221 29.0554 31.9633 30.9228 31.0457 32.4844C30.1281 34.0379 28.8644 35.2372 27.2545 36.0824C25.6447 36.9195 23.8014 37.3381 21.7247 37.3381C19.4065 37.3381 17.3701 36.8269 15.6153 35.8047C13.8606 34.7744 12.4922 33.3135 11.5102 31.4219C10.5363 29.5223 10.0493 27.2685 10.0493 24.6605C10.0493 22.6563 10.339 20.8693 10.9186 19.2997C11.5062 17.7221 12.3272 16.3859 13.3817 15.2912C14.4361 14.1965 15.6636 13.3634 17.0642 12.7919C18.4648 12.2204 19.982 11.9347 21.616 11.9347C23.0166 11.9347 24.3206 12.1399 25.528 12.5504C26.7354 12.9529 27.8059 13.5244 28.7396 14.2649C29.6814 15.0054 30.4501 15.8868 31.0457 16.9091C31.6414 17.9233 32.0237 19.0421 32.1927 20.2656H26.8802Z" fill="white"/>
<path d="M3.5 5C4.88071 5 6 3.88071 6 2.5C6 1.11929 4.88071 0 3.5 0C2.11929 0 1 1.11929 1 2.5C1 3.88071 2.11929 5 3.5 5Z" fill="white"/>
<path d="M20.5 5C21.8807 5 23 3.88071 23 2.5C23 1.11929 21.8807 0 20.5 0C19.1193 0 18 1.11929 18 2.5C18 3.88071 19.1193 5 20.5 5Z" fill="white"/>
</svg>
