<svg width="80" height="80" viewBox="0 0 80 80" fill="none" xmlns="http://www.w3.org/2000/svg">
<path d="M63 19L46.7587 65H32.2413L16 19H29.61L39.258 51.9128H39.742L49.3597 19H63Z" fill="#F6F3ED"/>
<circle cx="40" cy="40" r="39.5" stroke="#F6F3ED"/>
<path d="M30.0472 20.5H16.5L17 22H30.5L30.0472 20.5Z" fill="#101010"/>
<path d="M16.9528 20.5H30.5L30 22H16.5L16.9528 20.5Z" fill="#101010"/>
<path d="M48.7528 21H62.3L61.8 22.5H48.3L48.7528 21Z" fill="#101010"/>
<path d="M33 30.5H20L20.6227 32H33.426L33 30.5Z" fill="#101010"/>
<path d="M33 30.5H20L20.6227 32H33.426L33 30.5Z" fill="#101010"/>
<path d="M45.8 31H58.7557L58.2304 32.5H45.374L45.8 31Z" fill="#101010"/>
<path d="M35.7773 40H23.4138L23.9056 41.5H36.3591L35.7773 40Z" fill="#101010"/>
<path d="M43.2365 40H55.6L55.1082 41.5H42.6547L43.2365 40Z" fill="#101010"/>
<path d="M51 53H28L28.5 54.5H50.5L51 53Z" fill="#101010"/>
<path d="M48.1643 61H30.8255L31.3611 62.5H47.6431L48.1643 61Z" fill="#101010"/>
</svg>
