<svg width="80" height="80" viewBox="0 0 80 80" fill="none" xmlns="http://www.w3.org/2000/svg">
<circle cx="40" cy="40" r="39.5" stroke="#F6F3ED"/>
<circle cx="40" cy="40" r="28.5" stroke="#F6F3ED"/>
<path d="M39.6363 55.0909V24.1818H40.409V55.0909H39.6363ZM46.6874 33.4545C46.5667 31.7642 45.9187 30.3757 44.7435 29.2891C43.5764 28.2024 42.0349 27.6591 40.1192 27.6591C38.8635 27.6591 37.7407 27.9006 36.7506 28.3835C35.7606 28.8665 34.9798 29.5305 34.4083 30.3757C33.8368 31.2128 33.551 32.1747 33.551 33.2614C33.551 33.8892 33.6557 34.4688 33.865 35C34.0742 35.5312 34.3922 36.0182 34.8188 36.4609C35.2535 36.8956 35.7968 37.29 36.4488 37.6442C37.1088 37.9903 37.8815 38.3002 38.767 38.5739L41.5681 39.4432C42.6386 39.7732 43.5643 40.1435 44.3451 40.554C45.1259 40.9645 45.7698 41.4273 46.2769 41.9425C46.7921 42.4496 47.1744 43.017 47.4239 43.6449C47.6734 44.2647 47.7982 44.9569 47.7982 45.7216C47.7982 47.0095 47.4682 48.1565 46.8082 49.1626C46.1481 50.1688 45.2265 50.9576 44.0432 51.5291C42.86 52.1006 41.4876 52.3864 39.926 52.3864C38.4208 52.3864 37.1048 52.1248 35.9779 51.6016C34.851 51.0703 33.9575 50.3419 33.2975 49.4162C32.6455 48.4825 32.2793 47.4119 32.1988 46.2045H32.9715C33.052 47.267 33.386 48.2048 33.9736 49.0178C34.5612 49.8307 35.3581 50.4666 36.3643 50.9254C37.3785 51.3842 38.5657 51.6136 39.926 51.6136C41.3427 51.6136 42.5823 51.3681 43.6448 50.8771C44.7153 50.3781 45.5444 49.6858 46.132 48.8004C46.7277 47.915 47.0255 46.8887 47.0255 45.7216C47.0255 44.8362 46.8323 44.0594 46.4459 43.3913C46.0596 42.7152 45.4519 42.1196 44.6228 41.6044C43.7937 41.0893 42.7111 40.6264 41.3749 40.2159L38.5738 39.3466C36.6339 38.7348 35.181 37.9259 34.2151 36.9197C33.2573 35.9136 32.7783 34.6941 32.7783 33.2614C32.7783 32.0459 33.0963 30.9593 33.7322 30.0014C34.368 29.0355 35.2374 28.2749 36.3401 27.7195C37.4509 27.1641 38.7106 26.8864 40.1192 26.8864C41.5359 26.8864 42.7795 27.1681 43.8501 27.7315C44.9206 28.295 45.7698 29.0717 46.3976 30.0618C47.0255 31.0518 47.3796 32.1828 47.4601 33.4545H46.6874Z" fill="white"/>
</svg>
