<svg width="270" height="33" viewBox="0 0 270 33" fill="none" xmlns="http://www.w3.org/2000/svg" overflow="visible">
<path d="M3.62223 1.27271V26H0.62793V1.27271H3.62223Z" fill="white"/>
<path d="M12.0891 14.8438V26H9.23975V7.4545H11.9926V10.3523H12.234C12.6687 9.4105 13.3287 8.6539 14.2141 8.0824C15.0996 7.5028 16.2426 7.2131 17.6431 7.2131C18.8988 7.2131 19.9975 7.4706 20.9393 7.9858C21.881 8.4929 22.6135 9.2656 23.1367 10.304C23.6599 11.3343 23.9215 12.6383 23.9215 14.2159V26H21.0721V14.4091C21.0721 12.9522 20.6938 11.8172 19.9372 11.0043C19.1805 10.1832 18.1422 9.7727 16.8221 9.7727C15.9125 9.7727 15.0996 9.9699 14.3832 10.3643C13.6748 10.7588 13.1154 11.3343 12.7049 12.0909C12.2944 12.8475 12.0891 13.7652 12.0891 14.8438Z" fill="white"/>
<path d="M43.6292 7.4545L36.7712 26H33.8735L27.0156 7.4545H30.1065L35.2258 22.233H35.419L40.5383 7.4545H43.6292Z" fill="white"/>
<path d="M54.5018 26.3864C52.7149 26.3864 51.1734 25.992 49.8775 25.2031C48.5896 24.4063 47.5956 23.2955 46.8953 21.8707C46.203 20.438 45.8569 18.7718 45.8569 16.8722C45.8569 14.9725 46.203 13.2983 46.8953 11.8494C47.5956 10.3925 48.5695 9.2576 49.8171 8.4446C51.0728 7.6236 52.5378 7.2131 54.212 7.2131C55.1781 7.2131 56.1321 7.3741 57.0731 7.696C58.0151 8.018 58.8721 8.5412 59.6451 9.2656C60.4181 9.982 61.0341 10.9318 61.4921 12.1151C61.9511 13.2983 62.1811 14.7552 62.1811 16.4858V17.6932H47.8853V15.2301H59.2831C59.2831 14.1837 59.0741 13.25 58.6551 12.429C58.2451 11.608 57.6571 10.96 56.8921 10.4851C56.1361 10.0102 55.2421 9.7727 54.212 9.7727C53.0771 9.7727 52.0951 10.0545 51.266 10.6179C50.445 11.1733 49.8131 11.8977 49.3704 12.7912C48.9277 13.6847 48.7064 14.6425 48.7064 15.6648V17.3068C48.7064 18.7074 48.9478 19.8947 49.4308 20.8686C49.9218 21.8345 50.602 22.571 51.4713 23.0781C52.3406 23.5772 53.3508 23.8267 54.5018 23.8267C55.2501 23.8267 55.9261 23.7221 56.5301 23.5128C57.1421 23.2955 57.6691 22.9735 58.1121 22.5469C58.5551 22.1122 58.8971 21.5729 59.1381 20.929L61.8911 21.7017C61.6011 22.6354 61.1141 23.4564 60.4301 24.1648C59.7461 24.8651 58.9011 25.4124 57.8941 25.8068C56.8881 26.1932 55.7571 26.3864 54.5018 26.3864Z" fill="white"/>
<path d="M79.6518 11.608L77.0919 12.3324C76.9309 11.9058 76.6928 11.4912 76.3798 11.0888C76.0738 10.6783 75.6548 10.3402 75.1238 10.0746C74.5928 9.809 73.9118 9.6761 73.0828 9.6761C71.9478 9.6761 71.0028 9.9377 70.2458 10.4609C69.4968 10.9761 69.1228 11.6321 69.1228 12.429C69.1228 13.1373 69.3809 13.6967 69.8959 14.1072C70.4109 14.5178 71.2158 14.8599 72.3108 15.1335L75.0629 15.8097C76.7219 16.2121 77.9568 16.8279 78.7698 17.657C79.5828 18.478 79.9898 19.5365 79.9898 20.8324C79.9898 21.8949 79.6838 22.8447 79.0718 23.6818C78.4678 24.5189 77.6228 25.179 76.5368 25.6619C75.4498 26.1449 74.1859 26.3864 72.7449 26.3864C70.8539 26.3864 69.2879 25.9759 68.0489 25.1548C66.8089 24.3338 66.0238 23.1345 65.6938 21.5568L68.3988 20.8807C68.6558 21.8788 69.1428 22.6274 69.8598 23.1264C70.5838 23.6255 71.5298 23.875 72.6968 23.875C74.0248 23.875 75.0798 23.5933 75.8598 23.0298C76.6488 22.4583 77.0438 21.7742 77.0438 20.9773C77.0438 20.3333 76.8178 19.794 76.3668 19.3594C75.9168 18.9167 75.2238 18.5866 74.2908 18.3693L71.1998 17.6449C69.5008 17.2424 68.2538 16.6186 67.4568 15.7734C66.6678 14.9202 66.2738 13.8537 66.2738 12.5739C66.2738 11.5275 66.5678 10.6018 67.1548 9.7969C67.7508 8.992 68.5598 8.3601 69.5818 7.9013C70.6118 7.4425 71.7788 7.2131 73.0828 7.2131C74.9188 7.2131 76.3588 7.6155 77.4058 8.4205C78.4598 9.2254 79.2088 10.2879 79.6518 11.608Z" fill="white"/>
<path d="M92.3439 7.45451V9.86931H82.7329V7.45451H92.3439ZM85.5349 3.01141H88.3839V20.6875C88.3839 21.4924 88.5009 22.0961 88.7339 22.4986C88.9759 22.893 89.2809 23.1586 89.6519 23.2955C90.0299 23.4242 90.4279 23.4886 90.8469 23.4886C91.1609 23.4886 91.4189 23.4725 91.6199 23.4403C91.8209 23.4001 91.9819 23.3679 92.1029 23.3438L92.6819 25.9034C92.4889 25.9759 92.2189 26.0483 91.8729 26.1207C91.5269 26.2012 91.0889 26.2415 90.5569 26.2415C89.7519 26.2415 88.9639 26.0684 88.1909 25.7223C87.4259 25.3762 86.7899 24.849 86.2829 24.1406C85.7839 23.4323 85.5349 22.5388 85.5349 21.4602V3.01141Z" fill="white"/>
<path d="M96.6299 26V7.4545H99.3829V10.3523H99.6249C100.011 9.3622 100.635 8.5935 101.496 8.0462C102.357 7.4908 103.392 7.2131 104.599 7.2131C105.823 7.2131 106.841 7.4908 107.654 8.0462C108.475 8.5935 109.115 9.3622 109.574 10.3523H109.767C110.242 9.3944 110.954 8.6338 111.904 8.0703C112.854 7.4988 113.993 7.2131 115.321 7.2131C116.979 7.2131 118.335 7.7322 119.39 8.7706C120.444 9.8009 120.971 11.4067 120.971 13.5881V26H118.122V13.5881C118.122 12.2197 117.748 11.2417 116.999 10.6541C116.25 10.0665 115.369 9.7727 114.355 9.7727C113.051 9.7727 112.041 10.1671 111.324 10.956C110.608 11.7367 110.25 12.7268 110.25 13.9261V26H107.352V13.2983C107.352 12.2438 107.01 11.3947 106.326 10.7507C105.642 10.0987 104.76 9.7727 103.682 9.7727C102.941 9.7727 102.249 9.9699 101.605 10.3643C100.969 10.7588 100.454 11.3061 100.059 12.0064C99.6729 12.6986 99.4799 13.4995 99.4799 14.4091V26H96.6299Z" fill="white"/>
<path d="M133.957 26.3864C132.17 26.3864 130.628 25.992 129.332 25.2031C128.045 24.4063 127.051 23.2955 126.35 21.8707C125.658 20.438 125.312 18.7718 125.312 16.8722C125.312 14.9725 125.658 13.2983 126.35 11.8494C127.051 10.3925 128.024 9.2576 129.272 8.4446C130.528 7.6236 131.993 7.2131 133.667 7.2131C134.633 7.2131 135.587 7.3741 136.529 7.696C137.47 8.018 138.328 8.5412 139.1 9.2656C139.873 9.982 140.489 10.9318 140.948 12.1151C141.406 13.2983 141.636 14.7552 141.636 16.4858V17.6932H127.34V15.2301H138.738C138.738 14.1837 138.529 13.25 138.11 12.429C137.7 11.608 137.112 10.96 136.347 10.4851C135.591 10.0102 134.697 9.7727 133.667 9.7727C132.532 9.7727 131.55 10.0545 130.721 10.6179C129.9 11.1733 129.268 11.8977 128.825 12.7912C128.383 13.6847 128.161 14.6425 128.161 15.6648V17.3068C128.161 18.7074 128.403 19.8947 128.886 20.8686C129.377 21.8345 130.057 22.571 130.926 23.0781C131.796 23.5772 132.806 23.8267 133.957 23.8267C134.705 23.8267 135.381 23.7221 135.985 23.5128C136.597 23.2955 137.124 22.9735 137.567 22.5469C138.01 22.1122 138.352 21.5729 138.593 20.929L141.346 21.7017C141.056 22.6354 140.569 23.4564 139.885 24.1648C139.201 24.8651 138.356 25.4124 137.35 25.8068C136.343 26.1932 135.212 26.3864 133.957 26.3864Z" fill="white"/>
<path d="M148.82 14.8438V26H145.97V7.4545H148.723V10.3523H148.965C149.399 9.4105 150.059 8.6539 150.945 8.0824C151.83 7.5028 152.973 7.2131 154.374 7.2131C155.629 7.2131 156.728 7.4706 157.67 7.9858C158.612 8.4929 159.344 9.2656 159.867 10.304C160.39 11.3343 160.652 12.6383 160.652 14.2159V26H157.803V14.4091C157.803 12.9522 157.424 11.8172 156.668 11.0043C155.911 10.1832 154.873 9.7727 153.553 9.7727C152.643 9.7727 151.83 9.9699 151.114 10.3643C150.405 10.7588 149.846 11.3343 149.435 12.0909C149.025 12.8475 148.82 13.7652 148.82 14.8438Z" fill="white"/>
<path d="M173.924 7.45451V9.86931H164.313V7.45451H173.924ZM167.115 3.01141H169.964V20.6875C169.964 21.4924 170.081 22.0961 170.314 22.4986C170.556 22.893 170.862 23.1586 171.232 23.2955C171.61 23.4242 172.009 23.4886 172.427 23.4886C172.741 23.4886 172.999 23.4725 173.2 23.4403C173.401 23.4001 173.562 23.3679 173.683 23.3438L174.262 25.9034C174.069 25.9759 173.8 26.0483 173.453 26.1207C173.107 26.2012 172.669 26.2415 172.137 26.2415C171.332 26.2415 170.544 26.0684 169.771 25.7223C169.006 25.3762 168.37 24.849 167.863 24.1406C167.364 23.4323 167.115 22.5388 167.115 21.4602V3.01141Z" fill="white"/>
<path d="M205.063 8.99999C204.797 8.18699 204.447 7.45859 204.012 6.81459C203.586 6.16259 203.075 5.60719 202.479 5.14839C201.891 4.68959 201.223 4.33949 200.475 4.09799C199.726 3.85649 198.905 3.73579 198.012 3.73579C196.547 3.73579 195.215 4.11409 194.015 4.87069C192.816 5.62739 191.862 6.74219 191.154 8.21519C190.445 9.68819 190.091 11.4953 190.091 13.6364C190.091 15.7775 190.449 17.5845 191.166 19.0575C191.882 20.5305 192.852 21.6454 194.076 22.402C195.299 23.1586 196.675 23.5369 198.205 23.5369C199.621 23.5369 200.869 23.2351 201.948 22.6314C203.034 22.0197 203.88 21.1584 204.483 20.0476C205.095 18.9287 205.401 17.6127 205.401 16.0994L206.318 16.2926H198.881V13.6364H208.299V16.2926C208.299 18.3291 207.864 20.0999 206.995 21.6051C206.133 23.1103 204.942 24.2775 203.421 25.1065C201.907 25.9276 200.169 26.3381 198.205 26.3381C196.015 26.3381 194.092 25.8229 192.434 24.7926C190.783 23.7623 189.496 22.2974 188.57 20.3977C187.652 18.4981 187.193 16.2443 187.193 13.6364C187.193 11.6804 187.455 9.92159 187.978 8.36009C188.51 6.79049 189.258 5.45429 190.224 4.35159C191.19 3.24879 192.333 2.40369 193.653 1.81609C194.973 1.22849 196.426 0.934692 198.012 0.934692C199.316 0.934692 200.531 1.13189 201.658 1.52629C202.793 1.91259 203.803 2.46399 204.688 3.18039C205.582 3.88869 206.327 4.73789 206.922 5.72799C207.518 6.70999 207.928 7.80069 208.154 8.99999H205.063Z" fill="white"/>
<path d="M220.575 26.3864C218.9 26.3864 217.431 25.9879 216.168 25.1911C214.912 24.3942 213.93 23.2794 213.222 21.8466C212.521 20.4138 212.171 18.7396 212.171 16.8239C212.171 14.892 212.521 13.2057 213.222 11.7649C213.93 10.3241 214.912 9.2053 216.168 8.4084C217.431 7.6115 218.9 7.2131 220.575 7.2131C222.249 7.2131 223.714 7.6115 224.97 8.4084C226.233 9.2053 227.215 10.3241 227.916 11.7649C228.624 13.2057 228.978 14.892 228.978 16.8239C228.978 18.7396 228.624 20.4138 227.916 21.8466C227.215 23.2794 226.233 24.3942 224.97 25.1911C223.714 25.9879 222.249 26.3864 220.575 26.3864ZM220.575 23.8267C221.846 23.8267 222.893 23.5007 223.714 22.8487C224.535 22.1967 225.143 21.3395 225.537 20.277C225.931 19.2145 226.129 18.0635 226.129 16.8239C226.129 15.5843 225.931 14.4292 225.537 13.3587C225.143 12.2881 224.535 11.4228 223.714 10.7628C222.893 10.1027 221.846 9.7727 220.575 9.7727C219.303 9.7727 218.257 10.1027 217.435 10.7628C216.614 11.4228 216.007 12.2881 215.612 13.3587C215.218 14.4292 215.021 15.5843 215.021 16.8239C215.021 18.0635 215.218 19.2145 215.612 20.277C216.007 21.3395 216.614 22.1967 217.435 22.8487C218.257 23.5007 219.303 23.8267 220.575 23.8267Z" fill="white"/>
<path d="M245.015 18.4176V7.4545H247.865V26H245.015V22.8608H244.822C244.387 23.8026 243.711 24.6035 242.794 25.2635C241.876 25.9155 240.717 26.2415 239.316 26.2415C238.157 26.2415 237.127 25.9879 236.225 25.4808C235.324 24.9657 234.616 24.193 234.1 23.1626C233.585 22.1243 233.328 20.8163 233.328 19.2386V7.4545H236.177V19.0455C236.177 20.3977 236.555 21.4763 237.312 22.2813C238.077 23.0862 239.051 23.4886 240.234 23.4886C240.942 23.4886 241.663 23.3075 242.395 22.9453C243.136 22.5831 243.755 22.0277 244.255 21.2791C244.762 20.5305 245.015 19.5767 245.015 18.4176Z" fill="white"/>
<path d="M253.084 32.9545V7.4545H255.836V10.4006H256.174C256.384 10.0786 256.674 9.6681 257.044 9.169C257.422 8.6619 257.961 8.2112 258.662 7.8168C259.37 7.4143 260.328 7.2131 261.535 7.2131C263.097 7.2131 264.473 7.6035 265.665 8.3842C266.856 9.165 267.786 10.2718 268.454 11.7045C269.122 13.1373 269.456 14.8277 269.456 16.7756C269.456 18.7396 269.122 20.442 268.454 21.8828C267.786 23.3156 266.86 24.4264 265.677 25.2152C264.493 25.996 263.129 26.3864 261.584 26.3864C260.392 26.3864 259.438 26.1892 258.722 25.7947C258.006 25.3923 257.454 24.9375 257.068 24.4304C256.682 23.9152 256.384 23.4886 256.174 23.1506H255.933V32.9545H253.084ZM255.885 16.7273C255.885 18.1278 256.09 19.3634 256.5 20.434C256.911 21.4965 257.511 22.3295 258.299 22.9332C259.088 23.5289 260.054 23.8267 261.197 23.8267C262.388 23.8267 263.383 23.5128 264.179 22.8849C264.984 22.2491 265.588 21.3958 265.991 20.3253C266.401 19.2467 266.606 18.0474 266.606 16.7273C266.606 15.4233 266.405 14.2481 266.003 13.2017C265.608 12.1473 265.009 11.3142 264.204 10.7024C263.407 10.0826 262.405 9.7727 261.197 9.7727C260.038 9.7727 259.064 10.0665 258.275 10.6541C257.487 11.2337 256.891 12.0466 256.488 13.093C256.086 14.1314 255.885 15.3428 255.885 16.7273Z" fill="white"/>
</svg>
