<svg width="315" height="44" viewBox="0 0 315 44" fill="none" xmlns="http://www.w3.org/2000/svg">
<path d="M6.18282 12.2727V37H0.954834V12.2727H6.18282Z" fill="white"/>
<path d="M26.8804 20.2656C26.7114 19.678 26.474 19.1589 26.1681 18.7081C25.8622 18.2493 25.4879 17.8629 25.0452 17.549C24.6106 17.227 24.1115 16.9815 23.5481 16.8125C22.9927 16.6435 22.3769 16.559 21.7008 16.559C20.437 16.559 19.3262 16.8729 18.3684 17.5007C17.4186 18.1286 16.678 19.0421 16.1468 20.2415C15.6155 21.4328 15.3499 22.8897 15.3499 24.6122C15.3499 26.3348 15.6115 27.7997 16.1347 29.0071C16.6579 30.2145 17.3984 31.1361 18.3563 31.772C19.3141 32.3999 20.4451 32.7138 21.749 32.7138C22.9323 32.7138 23.9425 32.5045 24.7796 32.0859C25.6248 31.6593 26.2687 31.0597 26.7114 30.2869C27.1622 29.5142 27.3875 28.6006 27.3875 27.5462L28.45 27.7031H22.075V23.767H32.4223V26.8821C32.4223 29.0554 31.9635 30.9228 31.0459 32.4844C30.1283 34.0379 28.8646 35.2372 27.2547 36.0824C25.6449 36.9195 23.8016 37.3381 21.7249 37.3381C19.4067 37.3381 17.3703 36.8269 15.6155 35.8047C13.8608 34.7744 12.4924 33.3135 11.5104 31.4219C10.5365 29.5223 10.0495 27.2685 10.0495 24.6605C10.0495 22.6563 10.3392 20.8693 10.9188 19.2997C11.5064 17.7221 12.3274 16.3859 13.3819 15.2912C14.4363 14.1965 15.6638 13.3634 17.0644 12.7919C18.465 12.2204 19.9822 11.9347 21.6162 11.9347C23.0168 11.9347 24.3208 12.1399 25.5282 12.5504C26.7356 12.9529 27.8061 13.5244 28.7398 14.2649C29.6816 15.0054 30.4503 15.8868 31.0459 16.9091C31.6416 17.9233 32.0239 19.0421 32.1929 20.2656H26.8804Z" fill="white"/>
<path d="M48.6224 12.2727V37H45.6281V12.2727H48.6224Z" fill="white"/>
<path d="M57.0892 25.8438V37H54.2398V18.4545H56.9927V21.3523H57.2341C57.6688 20.4105 58.3288 19.6539 59.2142 19.0824C60.0997 18.5028 61.2427 18.2131 62.6432 18.2131C63.8989 18.2131 64.9976 18.4706 65.9394 18.9858C66.8811 19.4929 67.6136 20.2656 68.1368 21.304C68.66 22.3343 68.9216 23.6383 68.9216 25.2159V37H66.0722V25.4091C66.0722 23.9522 65.6939 22.8172 64.9373 22.0043C64.1806 21.1832 63.1423 20.7727 61.8222 20.7727C60.9126 20.7727 60.0997 20.9699 59.3833 21.3643C58.6749 21.7588 58.1155 22.3343 57.705 23.0909C57.2945 23.8475 57.0892 24.7652 57.0892 25.8438Z" fill="white"/>
<path d="M88.6292 18.4545L81.7712 37H78.8735L72.0156 18.4545H75.1065L80.2258 33.233H80.419L85.5383 18.4545H88.6292Z" fill="white"/>
<path d="M99.5017 37.3864C97.7148 37.3864 96.1733 36.992 94.8774 36.2031C93.5895 35.4063 92.5955 34.2955 91.8952 32.8707C91.2029 31.438 90.8568 29.7718 90.8568 27.8722C90.8568 25.9725 91.2029 24.2983 91.8952 22.8494C92.5955 21.3925 93.5694 20.2576 94.817 19.4446C96.0727 18.6236 97.5377 18.2131 99.2119 18.2131C100.178 18.2131 101.132 18.3741 102.073 18.696C103.015 19.018 103.872 19.5412 104.645 20.2656C105.418 20.982 106.034 21.9318 106.492 23.1151C106.951 24.2983 107.181 25.7552 107.181 27.4858V28.6932H92.8852V26.2301H104.283C104.283 25.1837 104.074 24.25 103.655 23.429C103.245 22.608 102.657 21.96 101.892 21.4851C101.136 21.0102 100.242 20.7727 99.2119 20.7727C98.077 20.7727 97.095 21.0545 96.2659 21.6179C95.4449 22.1733 94.813 22.8977 94.3703 23.7912C93.9276 24.6847 93.7063 25.6425 93.7063 26.6648V28.3068C93.7063 29.7074 93.9477 30.8947 94.4307 31.8686C94.9217 32.8345 95.6019 33.571 96.4712 34.0781C97.3405 34.5772 98.3507 34.8267 99.5017 34.8267C100.25 34.8267 100.926 34.7221 101.53 34.5128C102.142 34.2955 102.669 33.9735 103.112 33.5469C103.555 33.1122 103.897 32.5729 104.138 31.929L106.891 32.7017C106.601 33.6354 106.114 34.4564 105.43 35.1648C104.746 35.8651 103.901 36.4124 102.894 36.8068C101.888 37.1932 100.757 37.3864 99.5017 37.3864Z" fill="white"/>
<path d="M124.652 22.608L122.092 23.3324C121.931 22.9058 121.693 22.4912 121.38 22.0888C121.074 21.6783 120.655 21.3402 120.124 21.0746C119.593 20.809 118.912 20.6761 118.083 20.6761C116.948 20.6761 116.003 20.9377 115.246 21.4609C114.497 21.9761 114.123 22.6321 114.123 23.429C114.123 24.1373 114.381 24.6967 114.896 25.1072C115.411 25.5178 116.216 25.8599 117.311 26.1335L120.063 26.8097C121.722 27.2121 122.957 27.8279 123.77 28.657C124.583 29.478 124.99 30.5365 124.99 31.8324C124.99 32.8949 124.684 33.8447 124.072 34.6818C123.468 35.5189 122.623 36.179 121.537 36.6619C120.45 37.1449 119.186 37.3864 117.745 37.3864C115.854 37.3864 114.288 36.9759 113.049 36.1548C111.809 35.3338 111.024 34.1345 110.694 32.5568L113.399 31.8807C113.656 32.8788 114.143 33.6274 114.86 34.1264C115.584 34.6255 116.53 34.875 117.697 34.875C119.025 34.875 120.08 34.5933 120.86 34.0298C121.649 33.4583 122.044 32.7742 122.044 31.9773C122.044 31.3333 121.818 30.794 121.367 30.3594C120.917 29.9167 120.224 29.5866 119.291 29.3693L116.2 28.6449C114.501 28.2424 113.254 27.6186 112.457 26.7734C111.668 25.9202 111.274 24.8537 111.274 23.5739C111.274 22.5275 111.568 21.6018 112.155 20.7969C112.751 19.992 113.56 19.3601 114.582 18.9013C115.612 18.4425 116.779 18.2131 118.083 18.2131C119.919 18.2131 121.359 18.6155 122.406 19.4205C123.46 20.2254 124.209 21.2879 124.652 22.608Z" fill="white"/>
<path d="M137.344 18.4545V20.8693H127.733V18.4545H137.344ZM130.535 14.0114H133.384V31.6875C133.384 32.4924 133.501 33.0961 133.734 33.4986C133.976 33.893 134.281 34.1586 134.652 34.2955C135.03 34.4242 135.428 34.4886 135.847 34.4886C136.161 34.4886 136.419 34.4725 136.62 34.4403C136.821 34.4001 136.982 34.3679 137.103 34.3438L137.682 36.9034C137.489 36.9759 137.219 37.0483 136.873 37.1207C136.527 37.2012 136.089 37.2415 135.557 37.2415C134.752 37.2415 133.964 37.0684 133.191 36.7223C132.426 36.3762 131.79 35.849 131.283 35.1406C130.784 34.4323 130.535 33.5388 130.535 32.4602V14.0114Z" fill="white"/>
<path d="M141.63 37V18.4545H144.383V21.3523H144.625C145.011 20.3622 145.635 19.5935 146.496 19.0462C147.357 18.4908 148.392 18.2131 149.599 18.2131C150.823 18.2131 151.841 18.4908 152.654 19.0462C153.475 19.5935 154.115 20.3622 154.574 21.3523H154.767C155.242 20.3944 155.954 19.6338 156.904 19.0703C157.854 18.4988 158.993 18.2131 160.321 18.2131C161.979 18.2131 163.335 18.7322 164.39 19.7706C165.444 20.8009 165.971 22.4067 165.971 24.5881V37H163.122V24.5881C163.122 23.2197 162.748 22.2417 161.999 21.6541C161.25 21.0665 160.369 20.7727 159.355 20.7727C158.051 20.7727 157.041 21.1671 156.324 21.956C155.608 22.7367 155.25 23.7268 155.25 24.9261V37H152.352V24.2983C152.352 23.2438 152.01 22.3947 151.326 21.7507C150.642 21.0987 149.76 20.7727 148.682 20.7727C147.941 20.7727 147.249 20.9699 146.605 21.3643C145.969 21.7588 145.454 22.3061 145.059 23.0064C144.673 23.6986 144.48 24.4995 144.48 25.4091V37H141.63Z" fill="white"/>
<path d="M178.957 37.3864C177.17 37.3864 175.628 36.992 174.332 36.2031C173.045 35.4063 172.051 34.2955 171.35 32.8707C170.658 31.438 170.312 29.7718 170.312 27.8722C170.312 25.9725 170.658 24.2983 171.35 22.8494C172.051 21.3925 173.024 20.2576 174.272 19.4446C175.528 18.6236 176.993 18.2131 178.667 18.2131C179.633 18.2131 180.587 18.3741 181.529 18.696C182.47 19.018 183.328 19.5412 184.1 20.2656C184.873 20.982 185.489 21.9318 185.948 23.1151C186.406 24.2983 186.636 25.7552 186.636 27.4858V28.6932H172.34V26.2301H183.738C183.738 25.1837 183.529 24.25 183.11 23.429C182.7 22.608 182.112 21.96 181.347 21.4851C180.591 21.0102 179.697 20.7727 178.667 20.7727C177.532 20.7727 176.55 21.0545 175.721 21.6179C174.9 22.1733 174.268 22.8977 173.825 23.7912C173.383 24.6847 173.161 25.6425 173.161 26.6648V28.3068C173.161 29.7074 173.403 30.8947 173.886 31.8686C174.377 32.8345 175.057 33.571 175.926 34.0781C176.796 34.5772 177.806 34.8267 178.957 34.8267C179.705 34.8267 180.381 34.7221 180.985 34.5128C181.597 34.2955 182.124 33.9735 182.567 33.5469C183.01 33.1122 183.352 32.5729 183.593 31.929L186.346 32.7017C186.056 33.6354 185.569 34.4564 184.885 35.1648C184.201 35.8651 183.356 36.4124 182.35 36.8068C181.343 37.1932 180.212 37.3864 178.957 37.3864Z" fill="white"/>
<path d="M193.82 25.8438V37H190.97V18.4545H193.723V21.3523H193.965C194.399 20.4105 195.059 19.6539 195.945 19.0824C196.83 18.5028 197.973 18.2131 199.374 18.2131C200.629 18.2131 201.728 18.4706 202.67 18.9858C203.612 19.4929 204.344 20.2656 204.867 21.304C205.39 22.3343 205.652 23.6383 205.652 25.2159V37H202.803V25.4091C202.803 23.9522 202.424 22.8172 201.668 22.0043C200.911 21.1832 199.873 20.7727 198.553 20.7727C197.643 20.7727 196.83 20.9699 196.114 21.3643C195.405 21.7588 194.846 22.3343 194.435 23.0909C194.025 23.8475 193.82 24.7652 193.82 25.8438Z" fill="white"/>
<path d="M218.924 18.4545V20.8693H209.313V18.4545H218.924ZM212.115 14.0114H214.964V31.6875C214.964 32.4924 215.081 33.0961 215.314 33.4986C215.556 33.893 215.862 34.1586 216.232 34.2955C216.61 34.4242 217.009 34.4886 217.427 34.4886C217.741 34.4886 217.999 34.4725 218.2 34.4403C218.401 34.4001 218.562 34.3679 218.683 34.3438L219.262 36.9034C219.069 36.9759 218.8 37.0483 218.453 37.1207C218.107 37.2012 217.669 37.2415 217.137 37.2415C216.332 37.2415 215.544 37.0684 214.771 36.7223C214.006 36.3762 213.37 35.849 212.863 35.1406C212.364 34.4323 212.115 33.5388 212.115 32.4602V14.0114Z" fill="white"/>
<path d="M250.063 20C249.797 19.187 249.447 18.4586 249.012 17.8146C248.586 17.1626 248.075 16.6072 247.479 16.1484C246.891 15.6896 246.223 15.3395 245.475 15.098C244.726 14.8565 243.905 14.7358 243.012 14.7358C241.547 14.7358 240.215 15.1141 239.015 15.8707C237.816 16.6274 236.862 17.7422 236.154 19.2152C235.445 20.6882 235.091 22.4953 235.091 24.6364C235.091 26.7775 235.449 28.5845 236.166 30.0575C236.882 31.5305 237.852 32.6454 239.076 33.402C240.299 34.1586 241.675 34.5369 243.205 34.5369C244.621 34.5369 245.869 34.2351 246.948 33.6314C248.034 33.0197 248.88 32.1584 249.483 31.0476C250.095 29.9287 250.401 28.6127 250.401 27.0994L251.318 27.2926H243.881V24.6364H253.299V27.2926C253.299 29.3291 252.864 31.0999 251.995 32.6051C251.133 34.1103 249.942 35.2775 248.421 36.1065C246.907 36.9276 245.169 37.3381 243.205 37.3381C241.015 37.3381 239.092 36.8229 237.434 35.7926C235.783 34.7623 234.496 33.2974 233.57 31.3977C232.652 29.4981 232.193 27.2443 232.193 24.6364C232.193 22.6804 232.455 20.9216 232.978 19.3601C233.51 17.7905 234.258 16.4543 235.224 15.3516C236.19 14.2488 237.333 13.4037 238.653 12.8161C239.973 12.2285 241.426 11.9347 243.012 11.9347C244.316 11.9347 245.531 12.1319 246.658 12.5263C247.793 12.9126 248.803 13.464 249.688 14.1804C250.582 14.8887 251.327 15.7379 251.922 16.728C252.518 17.71 252.928 18.8007 253.154 20H250.063Z" fill="white"/>
<path d="M265.575 37.3864C263.9 37.3864 262.431 36.9879 261.168 36.1911C259.912 35.3942 258.93 34.2794 258.222 32.8466C257.521 31.4138 257.171 29.7396 257.171 27.8239C257.171 25.892 257.521 24.2057 258.222 22.7649C258.93 21.3241 259.912 20.2053 261.168 19.4084C262.431 18.6115 263.9 18.2131 265.575 18.2131C267.249 18.2131 268.714 18.6115 269.97 19.4084C271.233 20.2053 272.215 21.3241 272.916 22.7649C273.624 24.2057 273.978 25.892 273.978 27.8239C273.978 29.7396 273.624 31.4138 272.916 32.8466C272.215 34.2794 271.233 35.3942 269.97 36.1911C268.714 36.9879 267.249 37.3864 265.575 37.3864ZM265.575 34.8267C266.846 34.8267 267.893 34.5007 268.714 33.8487C269.535 33.1967 270.143 32.3395 270.537 31.277C270.931 30.2145 271.129 29.0635 271.129 27.8239C271.129 26.5843 270.931 25.4292 270.537 24.3587C270.143 23.2881 269.535 22.4228 268.714 21.7628C267.893 21.1027 266.846 20.7727 265.575 20.7727C264.303 20.7727 263.257 21.1027 262.435 21.7628C261.614 22.4228 261.007 23.2881 260.612 24.3587C260.218 25.4292 260.021 26.5843 260.021 27.8239C260.021 29.0635 260.218 30.2145 260.612 31.277C261.007 32.3395 261.614 33.1967 262.435 33.8487C263.257 34.5007 264.303 34.8267 265.575 34.8267Z" fill="white"/>
<path d="M290.015 29.4176V18.4545H292.865V37H290.015V33.8608H289.822C289.387 34.8026 288.711 35.6035 287.794 36.2635C286.876 36.9155 285.717 37.2415 284.316 37.2415C283.157 37.2415 282.127 36.9879 281.225 36.4808C280.324 35.9657 279.616 35.193 279.1 34.1626C278.585 33.1243 278.328 31.8163 278.328 30.2386V18.4545H281.177V30.0455C281.177 31.3977 281.555 32.4763 282.312 33.2813C283.077 34.0862 284.051 34.4886 285.234 34.4886C285.942 34.4886 286.663 34.3075 287.395 33.9453C288.136 33.5831 288.755 33.0277 289.255 32.2791C289.762 31.5305 290.015 30.5767 290.015 29.4176Z" fill="white"/>
<path d="M298.084 43.9545V18.4545H300.836V21.4006H301.174C301.384 21.0786 301.674 20.6681 302.044 20.169C302.422 19.6619 302.961 19.2112 303.662 18.8168C304.37 18.4143 305.328 18.2131 306.535 18.2131C308.097 18.2131 309.473 18.6035 310.665 19.3842C311.856 20.165 312.786 21.2718 313.454 22.7045C314.122 24.1373 314.456 25.8277 314.456 27.7756C314.456 29.7396 314.122 31.442 313.454 32.8828C312.786 34.3156 311.86 35.4264 310.677 36.2152C309.493 36.996 308.129 37.3864 306.584 37.3864C305.392 37.3864 304.438 37.1892 303.722 36.7947C303.006 36.3923 302.454 35.9375 302.068 35.4304C301.682 34.9152 301.384 34.4886 301.174 34.1506H300.933V43.9545H298.084ZM300.885 27.7273C300.885 29.1278 301.09 30.3634 301.5 31.434C301.911 32.4965 302.511 33.3295 303.299 33.9332C304.088 34.5289 305.054 34.8267 306.197 34.8267C307.388 34.8267 308.383 34.5128 309.179 33.8849C309.984 33.2491 310.588 32.3958 310.991 31.3253C311.401 30.2467 311.606 29.0474 311.606 27.7273C311.606 26.4233 311.405 25.2481 311.003 24.2017C310.608 23.1473 310.009 22.3142 309.204 21.7024C308.407 21.0826 307.405 20.7727 306.197 20.7727C305.038 20.7727 304.064 21.0665 303.275 21.6541C302.487 22.2337 301.891 23.0466 301.488 24.093C301.086 25.1314 300.885 26.3428 300.885 27.7273Z" fill="white"/>
<circle cx="3.50003" cy="2.5" r="2.5" fill="white"/>
<circle cx="20.5" cy="2.5" r="2.5" fill="white"/>
</svg>
