<svg width="329" height="44" viewBox="0 0 329 44" fill="none" xmlns="http://www.w3.org/2000/svg">
<path d="M6.18306 12.2727V37H0.955078V12.2727H6.18306Z" fill="white"/>
<path d="M26.8802 20.2657C26.7112 19.6781 26.4738 19.159 26.1679 18.7082C25.862 18.2494 25.4877 17.863 25.045 17.5491C24.6104 17.2271 24.1113 16.9816 23.5479 16.8126C22.9925 16.6436 22.3767 16.5591 21.7006 16.5591C20.4368 16.5591 19.326 16.873 18.3682 17.5008C17.4184 18.1287 16.6778 19.0422 16.1466 20.2416C15.6153 21.4329 15.3497 22.8898 15.3497 24.6123C15.3497 26.3349 15.6113 27.7998 16.1345 29.0072C16.6577 30.2146 17.3982 31.1362 18.3561 31.7721C19.3139 32.4 20.4449 32.7139 21.7488 32.7139C22.9321 32.7139 23.9423 32.5046 24.7794 32.086C25.6246 31.6594 26.2685 31.0598 26.7112 30.287C27.162 29.5143 27.3873 28.6007 27.3873 27.5463L28.4498 27.7032H22.0748V23.7671H32.4221V26.8822C32.4221 29.0555 31.9633 30.9229 31.0457 32.4845C30.1281 34.038 28.8644 35.2373 27.2545 36.0825C25.6447 36.9196 23.8014 37.3382 21.7247 37.3382C19.4065 37.3382 17.3701 36.827 15.6153 35.8048C13.8606 34.7745 12.4922 33.3136 11.5102 31.422C10.5363 29.5224 10.0493 27.2686 10.0493 24.6606C10.0493 22.6564 10.339 20.8694 10.9186 19.2998C11.5062 17.7222 12.3272 16.386 13.3817 15.2913C14.4361 14.1966 15.6636 13.3635 17.0642 12.792C18.4648 12.2205 19.982 11.9348 21.616 11.9348C23.0166 11.9348 24.3206 12.14 25.528 12.5505C26.7354 12.953 27.8059 13.5245 28.7396 14.265C29.6814 15.0055 30.4501 15.8869 31.0457 16.9092C31.6414 17.9234 32.0237 19.0422 32.1927 20.2657H26.8802Z" fill="white"/>
<path d="M48.6222 12.2727V37H45.6279V12.2727H48.6222Z" fill="white"/>
<path d="M57.0891 25.8438V37H54.2397V18.4545H56.9926V21.3523H57.234C57.6687 20.4105 58.3287 19.6539 59.2141 19.0824C60.0996 18.5028 61.2426 18.2131 62.6431 18.2131C63.8988 18.2131 64.9975 18.4706 65.9393 18.9858C66.881 19.4929 67.6135 20.2656 68.1367 21.304C68.6599 22.3343 68.9215 23.6383 68.9215 25.2159V37H66.0721V25.4091C66.0721 23.9522 65.6938 22.8172 64.9372 22.0043C64.1805 21.1832 63.1422 20.7727 61.8221 20.7727C60.9125 20.7727 60.0996 20.9699 59.3832 21.3643C58.6748 21.7588 58.1154 22.3343 57.7049 23.0909C57.2944 23.8475 57.0891 24.7652 57.0891 25.8438Z" fill="white"/>
<path d="M88.6292 18.4546L81.7712 37.0001H78.8735L72.0156 18.4546H75.1065L80.2258 33.2331H80.419L85.5383 18.4546H88.6292Z" fill="white"/>
<path d="M99.5018 37.3864C97.7149 37.3864 96.1734 36.992 94.8775 36.2031C93.5896 35.4063 92.5956 34.2955 91.8953 32.8707C91.203 31.438 90.8569 29.7718 90.8569 27.8722C90.8569 25.9725 91.203 24.2983 91.8953 22.8494C92.5956 21.3925 93.5695 20.2576 94.8171 19.4446C96.0728 18.6236 97.5378 18.2131 99.212 18.2131C100.178 18.2131 101.132 18.3741 102.073 18.696C103.015 19.018 103.872 19.5412 104.645 20.2656C105.418 20.982 106.034 21.9318 106.492 23.1151C106.951 24.2983 107.181 25.7552 107.181 27.4858V28.6932H92.8853V26.2301H104.283C104.283 25.1837 104.074 24.25 103.655 23.429C103.245 22.608 102.657 21.96 101.892 21.4851C101.136 21.0102 100.242 20.7727 99.212 20.7727C98.0771 20.7727 97.0951 21.0545 96.266 21.6179C95.445 22.1733 94.8131 22.8977 94.3704 23.7912C93.9277 24.6847 93.7064 25.6425 93.7064 26.6648V28.3068C93.7064 29.7074 93.9478 30.8947 94.4308 31.8686C94.9218 32.8345 95.602 33.571 96.4713 34.0781C97.3406 34.5772 98.3508 34.8267 99.5018 34.8267C100.25 34.8267 100.926 34.7221 101.53 34.5128C102.142 34.2955 102.669 33.9735 103.112 33.5469C103.555 33.1122 103.897 32.5729 104.138 31.929L106.891 32.7017C106.601 33.6354 106.114 34.4564 105.43 35.1648C104.746 35.8651 103.901 36.4124 102.894 36.8068C101.888 37.1932 100.757 37.3864 99.5018 37.3864Z" fill="white"/>
<path d="M124.652 22.608L122.092 23.3324C121.931 22.9058 121.693 22.4912 121.38 22.0888C121.074 21.6783 120.655 21.3402 120.124 21.0746C119.593 20.809 118.912 20.6761 118.083 20.6761C116.948 20.6761 116.003 20.9377 115.246 21.4609C114.497 21.9761 114.123 22.6321 114.123 23.429C114.123 24.1373 114.381 24.6967 114.896 25.1072C115.411 25.5178 116.216 25.8599 117.311 26.1335L120.063 26.8097C121.722 27.2121 122.957 27.8279 123.77 28.657C124.583 29.478 124.99 30.5365 124.99 31.8324C124.99 32.8949 124.684 33.8447 124.072 34.6818C123.468 35.5189 122.623 36.179 121.537 36.6619C120.45 37.1449 119.186 37.3864 117.745 37.3864C115.854 37.3864 114.288 36.9759 113.049 36.1548C111.809 35.3338 111.024 34.1345 110.694 32.5568L113.399 31.8807C113.656 32.8788 114.143 33.6274 114.86 34.1264C115.584 34.6255 116.53 34.875 117.697 34.875C119.025 34.875 120.08 34.5933 120.86 34.0298C121.649 33.4583 122.044 32.7742 122.044 31.9773C122.044 31.3333 121.818 30.794 121.367 30.3594C120.917 29.9167 120.224 29.5866 119.291 29.3693L116.2 28.6449C114.501 28.2424 113.254 27.6186 112.457 26.7734C111.668 25.9202 111.274 24.8537 111.274 23.5739C111.274 22.5275 111.568 21.6018 112.155 20.7969C112.751 19.992 113.56 19.3601 114.582 18.9013C115.612 18.4425 116.779 18.2131 118.083 18.2131C119.919 18.2131 121.359 18.6155 122.406 19.4205C123.46 20.2254 124.209 21.2879 124.652 22.608Z" fill="white"/>
<path d="M137.344 18.4546V20.8694H127.733V18.4546H137.344ZM130.535 14.0115H133.384V31.6876C133.384 32.4925 133.501 33.0962 133.734 33.4987C133.976 33.8931 134.281 34.1587 134.652 34.2956C135.03 34.4243 135.428 34.4887 135.847 34.4887C136.161 34.4887 136.419 34.4726 136.62 34.4404C136.821 34.4002 136.982 34.368 137.103 34.3439L137.682 36.9035C137.489 36.976 137.219 37.0484 136.873 37.1208C136.527 37.2013 136.089 37.2416 135.557 37.2416C134.752 37.2416 133.964 37.0685 133.191 36.7224C132.426 36.3763 131.79 35.8491 131.283 35.1407C130.784 34.4324 130.535 33.5389 130.535 32.4603V14.0115Z" fill="white"/>
<path d="M141.63 37V18.4545H144.383V21.3523H144.625C145.011 20.3622 145.635 19.5935 146.496 19.0462C147.357 18.4908 148.392 18.2131 149.599 18.2131C150.823 18.2131 151.841 18.4908 152.654 19.0462C153.475 19.5935 154.115 20.3622 154.574 21.3523H154.767C155.242 20.3944 155.954 19.6338 156.904 19.0703C157.854 18.4988 158.993 18.2131 160.321 18.2131C161.979 18.2131 163.335 18.7322 164.39 19.7706C165.444 20.8009 165.971 22.4067 165.971 24.5881V37H163.122V24.5881C163.122 23.2197 162.748 22.2417 161.999 21.6541C161.25 21.0665 160.369 20.7727 159.355 20.7727C158.051 20.7727 157.041 21.1671 156.324 21.956C155.608 22.7367 155.25 23.7268 155.25 24.9261V37H152.352V24.2983C152.352 23.2438 152.01 22.3947 151.326 21.7507C150.642 21.0987 149.76 20.7727 148.682 20.7727C147.941 20.7727 147.249 20.9699 146.605 21.3643C145.969 21.7588 145.454 22.3061 145.059 23.0064C144.673 23.6986 144.48 24.4995 144.48 25.4091V37H141.63Z" fill="white"/>
<path d="M178.957 37.3864C177.17 37.3864 175.628 36.992 174.332 36.2031C173.045 35.4063 172.051 34.2955 171.35 32.8707C170.658 31.438 170.312 29.7718 170.312 27.8722C170.312 25.9725 170.658 24.2983 171.35 22.8494C172.051 21.3925 173.024 20.2576 174.272 19.4446C175.528 18.6236 176.993 18.2131 178.667 18.2131C179.633 18.2131 180.587 18.3741 181.529 18.696C182.47 19.018 183.328 19.5412 184.1 20.2656C184.873 20.982 185.489 21.9318 185.948 23.1151C186.406 24.2983 186.636 25.7552 186.636 27.4858V28.6932H172.34V26.2301H183.738C183.738 25.1837 183.529 24.25 183.11 23.429C182.7 22.608 182.112 21.96 181.347 21.4851C180.591 21.0102 179.697 20.7727 178.667 20.7727C177.532 20.7727 176.55 21.0545 175.721 21.6179C174.9 22.1733 174.268 22.8977 173.825 23.7912C173.383 24.6847 173.161 25.6425 173.161 26.6648V28.3068C173.161 29.7074 173.403 30.8947 173.886 31.8686C174.377 32.8345 175.057 33.571 175.926 34.0781C176.796 34.5772 177.806 34.8267 178.957 34.8267C179.705 34.8267 180.381 34.7221 180.985 34.5128C181.597 34.2955 182.124 33.9735 182.567 33.5469C183.01 33.1122 183.352 32.5729 183.593 31.929L186.346 32.7017C186.056 33.6354 185.569 34.4564 184.885 35.1648C184.201 35.8651 183.356 36.4124 182.35 36.8068C181.343 37.1932 180.212 37.3864 178.957 37.3864Z" fill="white"/>
<path d="M193.82 25.8438V37H190.97V18.4545H193.723V21.3523H193.965C194.399 20.4105 195.059 19.6539 195.945 19.0824C196.83 18.5028 197.973 18.2131 199.374 18.2131C200.629 18.2131 201.728 18.4706 202.67 18.9858C203.612 19.4929 204.344 20.2656 204.867 21.304C205.39 22.3343 205.652 23.6383 205.652 25.2159V37H202.803V25.4091C202.803 23.9522 202.424 22.8172 201.668 22.0043C200.911 21.1832 199.873 20.7727 198.553 20.7727C197.643 20.7727 196.83 20.9699 196.114 21.3643C195.405 21.7588 194.846 22.3343 194.435 23.0909C194.025 23.8475 193.82 24.7652 193.82 25.8438Z" fill="white"/>
<path d="M218.924 18.4546V20.8694H209.313V18.4546H218.924ZM212.115 14.0115H214.964V31.6876C214.964 32.4925 215.081 33.0962 215.314 33.4987C215.556 33.8931 215.862 34.1587 216.232 34.2956C216.61 34.4243 217.009 34.4887 217.427 34.4887C217.741 34.4887 217.999 34.4726 218.2 34.4404C218.401 34.4002 218.562 34.368 218.683 34.3439L219.262 36.9035C219.069 36.976 218.8 37.0484 218.453 37.1208C218.107 37.2013 217.669 37.2416 217.137 37.2416C216.332 37.2416 215.544 37.0685 214.771 36.7224C214.006 36.3763 213.37 35.8491 212.863 35.1407C212.364 34.4324 212.115 33.5389 212.115 32.4603V14.0115Z" fill="white"/>
<path d="M250.063 20.0001C249.797 19.1871 249.447 18.4587 249.012 17.8147C248.586 17.1627 248.075 16.6073 247.479 16.1485C246.891 15.6897 246.223 15.3396 245.475 15.0981C244.726 14.8566 243.905 14.7359 243.012 14.7359C241.547 14.7359 240.215 15.1142 239.015 15.8708C237.816 16.6275 236.862 17.7423 236.154 19.2153C235.445 20.6883 235.091 22.4954 235.091 24.6365C235.091 26.7776 235.449 28.5846 236.166 30.0576C236.882 31.5306 237.852 32.6455 239.076 33.4021C240.299 34.1587 241.675 34.537 243.205 34.537C244.621 34.537 245.869 34.2352 246.948 33.6315C248.034 33.0198 248.88 32.1585 249.483 31.0477C250.095 29.9288 250.401 28.6128 250.401 27.0995L251.318 27.2927H243.881V24.6365H253.299V27.2927C253.299 29.3292 252.864 31.1 251.995 32.6052C251.133 34.1104 249.942 35.2776 248.421 36.1066C246.907 36.9277 245.169 37.3382 243.205 37.3382C241.015 37.3382 239.092 36.823 237.434 35.7927C235.783 34.7624 234.496 33.2975 233.57 31.3978C232.652 29.4982 232.193 27.2444 232.193 24.6365C232.193 22.6805 232.455 20.9217 232.978 19.3602C233.51 17.7906 234.258 16.4544 235.224 15.3517C236.19 14.2489 237.333 13.4038 238.653 12.8162C239.973 12.2286 241.426 11.9348 243.012 11.9348C244.316 11.9348 245.531 12.132 246.658 12.5264C247.793 12.9127 248.803 13.4641 249.688 14.1805C250.582 14.8888 251.327 15.738 251.922 16.7281C252.518 17.7101 252.928 18.8008 253.154 20.0001H250.063Z" fill="white"/>
<path d="M279.575 37.3864C277.9 37.3864 276.431 36.9879 275.168 36.1911C273.912 35.3942 272.93 34.2794 272.222 32.8466C271.521 31.4138 271.171 29.7396 271.171 27.8239C271.171 25.892 271.521 24.2057 272.222 22.7649C272.93 21.3241 273.912 20.2053 275.168 19.4084C276.431 18.6115 277.9 18.2131 279.575 18.2131C281.249 18.2131 282.714 18.6115 283.97 19.4084C285.233 20.2053 286.215 21.3241 286.916 22.7649C287.624 24.2057 287.978 25.892 287.978 27.8239C287.978 29.7396 287.624 31.4138 286.916 32.8466C286.215 34.2794 285.233 35.3942 283.97 36.1911C282.714 36.9879 281.249 37.3864 279.575 37.3864ZM279.575 34.8267C280.846 34.8267 281.893 34.5007 282.714 33.8487C283.535 33.1967 284.143 32.3395 284.537 31.277C284.931 30.2145 285.129 29.0635 285.129 27.8239C285.129 26.5843 284.931 25.4292 284.537 24.3587C284.143 23.2881 283.535 22.4228 282.714 21.7628C281.893 21.1027 280.846 20.7727 279.575 20.7727C278.303 20.7727 277.257 21.1027 276.435 21.7628C275.614 22.4228 275.007 23.2881 274.612 24.3587C274.218 25.4292 274.021 26.5843 274.021 27.8239C274.021 29.0635 274.218 30.2145 274.612 31.277C275.007 32.3395 275.614 33.1967 276.435 33.8487C277.257 34.5007 278.303 34.8267 279.575 34.8267Z" fill="white"/>
<path d="M304.015 29.4177V18.4546H306.865V37.0001H304.015V33.8609H303.822C303.387 34.8027 302.711 35.6036 301.794 36.2636C300.876 36.9156 299.717 37.2416 298.316 37.2416C297.157 37.2416 296.127 36.988 295.225 36.4809C294.324 35.9658 293.616 35.1931 293.1 34.1627C292.585 33.1244 292.328 31.8164 292.328 30.2387V18.4546H295.177V30.0456C295.177 31.3978 295.555 32.4764 296.312 33.2814C297.077 34.0863 298.051 34.4887 299.234 34.4887C299.942 34.4887 300.663 34.3076 301.395 33.9454C302.136 33.5832 302.755 33.0278 303.255 32.2792C303.762 31.5306 304.015 30.5768 304.015 29.4177Z" fill="white"/>
<path d="M312.084 43.9545V18.4545H314.836V21.4006H315.174C315.384 21.0786 315.674 20.6681 316.044 20.169C316.422 19.6619 316.961 19.2112 317.662 18.8168C318.37 18.4143 319.328 18.2131 320.535 18.2131C322.097 18.2131 323.473 18.6035 324.665 19.3842C325.856 20.165 326.786 21.2718 327.454 22.7045C328.122 24.1373 328.456 25.8277 328.456 27.7756C328.456 29.7396 328.122 31.442 327.454 32.8828C326.786 34.3156 325.86 35.4264 324.677 36.2152C323.493 36.996 322.129 37.3864 320.584 37.3864C319.392 37.3864 318.438 37.1892 317.722 36.7947C317.006 36.3923 316.454 35.9375 316.068 35.4304C315.682 34.9152 315.384 34.4886 315.174 34.1506H314.933V43.9545H312.084ZM314.885 27.7273C314.885 29.1278 315.09 30.3634 315.5 31.434C315.911 32.4965 316.511 33.3295 317.299 33.9332C318.088 34.5289 319.054 34.8267 320.197 34.8267C321.388 34.8267 322.383 34.5128 323.179 33.8849C323.984 33.2491 324.588 32.3958 324.991 31.3253C325.401 30.2467 325.606 29.0474 325.606 27.7273C325.606 26.4233 325.405 25.2481 325.003 24.2017C324.608 23.1473 324.009 22.3142 323.204 21.7024C322.407 21.0826 321.405 20.7727 320.197 20.7727C319.038 20.7727 318.064 21.0665 317.275 21.6541C316.487 22.2337 315.891 23.0466 315.488 24.093C315.086 25.1314 314.885 26.3428 314.885 27.7273Z" fill="white"/>
<path d="M3.5 5C4.88071 5 6 3.88071 6 2.5C6 1.11929 4.88071 0 3.5 0C2.11929 0 1 1.11929 1 2.5C1 3.88071 2.11929 5 3.5 5Z" fill="white"/>
<path d="M20.5 5C21.8807 5 23 3.88071 23 2.5C23 1.11929 21.8807 0 20.5 0C19.1193 0 18 1.11929 18 2.5C18 3.88071 19.1193 5 20.5 5Z" fill="white"/>
<path d="M268.585 20.3048C266.914 20.3536 265.439 20.817 264.161 21.695C262.908 22.573 262.023 23.7803 261.507 25.3168V37.17H259V18.1098H261.359V22.6827C262.023 21.3413 262.895 20.256 263.977 19.4268C265.083 18.5975 266.25 18.1341 267.479 18.0366C267.725 18.0122 267.934 18 268.106 18C268.302 18 268.462 18.0122 268.585 18.0366V20.3048Z" fill="white"/>
</svg>
