<svg width="281" height="33" viewBox="0 0 281 33" fill="none" xmlns="http://www.w3.org/2000/svg">
<path d="M2.9887 1.27276V26H-0.00561523V1.27276H2.9887Z" fill="white"/>
<path d="M11.4555 14.8438V26H8.60607V7.45458H11.3589V10.3523H11.6004C12.035 9.41055 12.6951 8.65392 13.5805 8.08242C14.4659 7.50288 15.6089 7.2131 17.0095 7.2131C18.2652 7.2131 19.3639 7.47068 20.3056 7.98583C21.2474 8.49293 21.9799 9.26566 22.5031 10.304C23.0263 11.3343 23.2879 12.6383 23.2879 14.2159V26H20.4385V14.4091C20.4385 12.9522 20.0601 11.8173 19.3035 11.0043C18.5469 10.1833 17.5085 9.77276 16.1885 9.77276C15.2789 9.77276 14.4659 9.96997 13.7495 10.3644C13.0412 10.7588 12.4818 11.3343 12.0713 12.0909C11.6608 12.8476 11.4555 13.7652 11.4555 14.8438Z" fill="white"/>
<path d="M42.9955 7.45458L36.1375 26H33.2398L26.3818 7.45458H29.4727L34.592 22.233H34.7852L39.9045 7.45458H42.9955Z" fill="white"/>
<path d="M53.868 26.3864C52.081 26.3864 50.5396 25.992 49.2437 25.2032C47.9558 24.4063 46.9617 23.2955 46.2614 21.8708C45.5692 20.438 45.2231 18.7718 45.2231 16.8722C45.2231 14.9726 45.5692 13.2983 46.2614 11.8495C46.9617 10.3926 47.9357 9.25761 49.1833 8.44464C50.439 7.62361 51.9039 7.2131 53.5782 7.2131C54.5441 7.2131 55.4979 7.37409 56.4397 7.69606C57.3815 8.01803 58.2387 8.54123 59.0114 9.26566C59.7842 9.98204 60.3999 10.9319 60.8587 12.1151C61.3175 13.2983 61.5469 14.7552 61.5469 16.4858V17.6932H47.2515V15.2301H58.6492C58.6492 14.1837 58.4399 13.25 58.0214 12.429C57.6109 11.608 57.0233 10.96 56.2586 10.4851C55.502 10.0102 54.6085 9.77276 53.5782 9.77276C52.4432 9.77276 51.4612 10.0545 50.6322 10.6179C49.8111 11.1733 49.1793 11.8978 48.7366 12.7912C48.2939 13.6847 48.0725 14.6426 48.0725 15.6648V17.3069C48.0725 18.7074 48.314 19.8947 48.7969 20.8686C49.2879 21.8346 49.9681 22.5711 50.8374 23.0782C51.7067 23.5772 52.7169 23.8267 53.868 23.8267C54.6165 23.8267 55.2927 23.7221 55.8964 23.5128C56.5081 23.2955 57.0353 22.9735 57.4781 22.5469C57.9208 22.1123 58.2629 21.5729 58.5043 20.929L61.2572 21.7017C60.9674 22.6355 60.4804 23.4565 59.7962 24.1648C59.112 24.8651 58.2669 25.4124 57.2607 25.8069C56.2546 26.1932 55.1236 26.3864 53.868 26.3864Z" fill="white"/>
<path d="M79.0178 11.608L76.4582 12.3324C76.2972 11.9058 76.0597 11.4913 75.7458 11.0888C75.4399 10.6783 75.0214 10.3402 74.4901 10.0746C73.9589 9.80898 73.2787 9.67617 72.4496 9.67617C71.3147 9.67617 70.3689 9.93777 69.6123 10.461C68.8637 10.9761 68.4894 11.6321 68.4894 12.429C68.4894 13.1373 68.747 13.6968 69.2621 14.1073C69.7773 14.5178 70.5822 14.8599 71.6769 15.1336L74.4298 15.8097C76.0879 16.2122 77.3235 16.8279 78.1364 17.657C78.9494 18.478 79.3559 19.5365 79.3559 20.8324C79.3559 21.8949 79.05 22.8447 78.4383 23.6819C77.8346 24.519 76.9894 25.179 75.9028 25.662C74.8161 26.1449 73.5524 26.3864 72.1116 26.3864C70.22 26.3864 68.6544 25.9759 67.4148 25.1549C66.1753 24.3338 65.3905 23.1345 65.0604 21.5569L67.765 20.8807C68.0226 21.8788 68.5095 22.6274 69.2259 23.1265C69.9504 23.6255 70.8961 23.875 72.0633 23.875C73.3914 23.875 74.4459 23.5933 75.2266 23.0299C76.0155 22.4584 76.4099 21.7742 76.4099 20.9773C76.4099 20.3334 76.1845 19.7941 75.7337 19.3594C75.283 18.9167 74.5907 18.5867 73.657 18.3694L70.5661 17.6449C68.8677 17.2425 67.6201 16.6186 66.8232 15.7735C66.0344 14.9203 65.64 13.8537 65.64 12.5739C65.64 11.5275 65.9338 10.6018 66.5214 9.79691C67.117 8.99198 67.926 8.36012 68.9482 7.90131C69.9785 7.44251 71.1457 7.2131 72.4496 7.2131C74.2849 7.2131 75.7257 7.61556 76.7721 8.42049C77.8265 9.22541 78.5751 10.2879 79.0178 11.608Z" fill="white"/>
<path d="M91.7105 7.45458V9.86935H82.0997V7.45458H91.7105ZM84.9008 3.0114H87.7502V20.6875C87.7502 21.4925 87.867 22.0962 88.1004 22.4986C88.3419 22.893 88.6477 23.1587 89.018 23.2955C89.3963 23.4243 89.7947 23.4887 90.2133 23.4887C90.5272 23.4887 90.7848 23.4726 90.986 23.4404C91.1873 23.4001 91.3483 23.3679 91.469 23.3438L92.0485 25.9034C91.8554 25.9759 91.5857 26.0483 91.2396 26.1208C90.8935 26.2013 90.4548 26.2415 89.9235 26.2415C89.1186 26.2415 88.3298 26.0685 87.5571 25.7223C86.7924 25.3762 86.1565 24.849 85.6494 24.1407C85.1503 23.4323 84.9008 22.5389 84.9008 21.4603V3.0114Z" fill="white"/>
<path d="M95.9967 26V7.45458H98.7495V10.3523H98.991C99.3774 9.36225 100.001 8.59355 100.862 8.0462C101.724 7.4908 102.758 7.2131 103.965 7.2131C105.189 7.2131 106.207 7.4908 107.02 8.0462C107.841 8.59355 108.481 9.36225 108.94 10.3523H109.133C109.608 9.39445 110.32 8.63379 111.27 8.07035C112.22 7.49885 113.359 7.2131 114.687 7.2131C116.345 7.2131 117.701 7.73228 118.756 8.77063C119.81 9.80093 120.338 11.4068 120.338 13.5881V26H117.488V13.5881C117.488 12.2197 117.114 11.2417 116.365 10.6542C115.617 10.0666 114.735 9.77276 113.721 9.77276C112.417 9.77276 111.407 10.1672 110.691 10.956C109.974 11.7368 109.616 12.7268 109.616 13.9262V26H106.718V13.2983C106.718 12.2439 106.376 11.3947 105.692 10.7507C105.008 10.0988 104.126 9.77276 103.048 9.77276C102.307 9.77276 101.615 9.96997 100.971 10.3644C100.335 10.7588 99.8201 11.3061 99.4257 12.0064C99.0393 12.6987 98.8461 13.4996 98.8461 14.4091V26H95.9967Z" fill="white"/>
<path d="M133.323 26.3864C131.536 26.3864 129.995 25.992 128.699 25.2032C127.411 24.4063 126.417 23.2955 125.717 21.8708C125.024 20.438 124.678 18.7718 124.678 16.8722C124.678 14.9726 125.024 13.2983 125.717 11.8495C126.417 10.3926 127.391 9.25761 128.638 8.44464C129.894 7.62361 131.359 7.2131 133.033 7.2131C133.999 7.2131 134.953 7.37409 135.895 7.69606C136.837 8.01803 137.694 8.54123 138.467 9.26566C139.239 9.98204 139.855 10.9319 140.314 12.1151C140.773 13.2983 141.002 14.7552 141.002 16.4858V17.6932H126.707V15.2301H138.104C138.104 14.1837 137.895 13.25 137.476 12.429C137.066 11.608 136.478 10.96 135.714 10.4851C134.957 10.0102 134.064 9.77276 133.033 9.77276C131.898 9.77276 130.916 10.0545 130.087 10.6179C129.266 11.1733 128.634 11.8978 128.192 12.7912C127.749 13.6847 127.528 14.6426 127.528 15.6648V17.3069C127.528 18.7074 127.769 19.8947 128.252 20.8686C128.743 21.8346 129.423 22.5711 130.292 23.0782C131.162 23.5772 132.172 23.8267 133.323 23.8267C134.072 23.8267 134.748 23.7221 135.351 23.5128C135.963 23.2955 136.49 22.9735 136.933 22.5469C137.376 22.1123 137.718 21.5729 137.959 20.929L140.712 21.7017C140.422 22.6355 139.935 23.4565 139.251 24.1648C138.567 24.8651 137.722 25.4124 136.716 25.8069C135.71 26.1932 134.579 26.3864 133.323 26.3864Z" fill="white"/>
<path d="M148.186 14.8438V26H145.337V7.45458H148.089V10.3523H148.331C148.766 9.41055 149.426 8.65392 150.311 8.08242C151.196 7.50288 152.339 7.2131 153.74 7.2131C154.996 7.2131 156.094 7.47068 157.036 7.98583C157.978 8.49293 158.71 9.26566 159.234 10.304C159.757 11.3343 160.018 12.6383 160.018 14.2159V26H157.169V14.4091C157.169 12.9522 156.791 11.8173 156.034 11.0043C155.277 10.1833 154.239 9.77276 152.919 9.77276C152.009 9.77276 151.196 9.96997 150.48 10.3644C149.772 10.7588 149.212 11.3343 148.802 12.0909C148.391 12.8476 148.186 13.7652 148.186 14.8438Z" fill="white"/>
<path d="M173.291 7.45458V9.86935H163.68V7.45458H173.291ZM166.481 3.0114H169.33V20.6875C169.33 21.4925 169.447 22.0962 169.68 22.4986C169.922 22.893 170.228 23.1587 170.598 23.2955C170.976 23.4243 171.375 23.4887 171.793 23.4887C172.107 23.4887 172.365 23.4726 172.566 23.4404C172.767 23.4001 172.928 23.3679 173.049 23.3438L173.629 25.9034C173.435 25.9759 173.166 26.0483 172.82 26.1208C172.474 26.2013 172.035 26.2415 171.504 26.2415C170.699 26.2415 169.91 26.0685 169.137 25.7223C168.372 25.3762 167.737 24.849 167.229 24.1407C166.73 23.4323 166.481 22.5389 166.481 21.4603V3.0114Z" fill="white"/>
<path d="M204.429 9.00003C204.163 8.18706 203.813 7.4586 203.379 6.81466C202.952 6.16268 202.441 5.60728 201.845 5.14847C201.258 4.68966 200.59 4.33952 199.841 4.09804C199.092 3.85657 198.271 3.73583 197.378 3.73583C195.913 3.73583 194.581 4.11414 193.381 4.87077C192.182 5.6274 191.228 6.74222 190.52 8.21523C189.812 9.68824 189.457 11.4953 189.457 13.6364C189.457 15.7775 189.816 17.5846 190.532 19.0576C191.248 20.5306 192.218 21.6454 193.442 22.402C194.665 23.1587 196.042 23.537 197.571 23.537C198.988 23.537 200.235 23.2351 201.314 22.6314C202.401 22.0197 203.246 21.1584 203.85 20.0476C204.461 18.9288 204.767 17.6127 204.767 16.0995L205.685 16.2926H198.247V13.6364H207.665V16.2926C207.665 18.3291 207.23 20.0999 206.361 21.6051C205.5 23.1104 204.308 24.2775 202.787 25.1066C201.274 25.9276 199.535 26.3381 197.571 26.3381C195.382 26.3381 193.458 25.823 191.8 24.7926C190.15 23.7623 188.862 22.2974 187.936 20.3978C187.019 18.4981 186.56 16.2444 186.56 13.6364C186.56 11.6804 186.821 9.92167 187.345 8.36012C187.876 6.79052 188.624 5.45434 189.59 4.3516C190.556 3.24885 191.699 2.40368 193.019 1.81608C194.339 1.22849 195.792 0.934692 197.378 0.934692C198.682 0.934692 199.897 1.1319 201.024 1.52631C202.159 1.91267 203.169 2.46405 204.055 3.18043C204.948 3.88876 205.693 4.73796 206.288 5.72802C206.884 6.71002 207.295 7.8007 207.52 9.00003H204.429Z" fill="white"/>
<path d="M212.407 26V7.45458H215.16V10.2557H215.353C215.691 9.3381 216.303 8.59355 217.188 8.02205C218.074 7.45055 219.072 7.16481 220.182 7.16481C220.392 7.16481 220.653 7.16883 220.967 7.17688C221.281 7.18493 221.519 7.197 221.68 7.2131V10.1108C221.583 10.0867 221.362 10.0505 221.016 10.0022C220.677 9.94582 220.319 9.91765 219.941 9.91765C219.039 9.91765 218.235 10.1068 217.526 10.4851C216.826 10.8554 216.27 11.3705 215.86 12.0306C215.458 12.6826 215.256 13.4271 215.256 14.2642V26H212.407Z" fill="white"/>
<path d="M232.027 26.3864C230.353 26.3864 228.884 25.988 227.62 25.1911C226.364 24.3942 225.382 23.2794 224.674 21.8466C223.974 20.4139 223.623 18.7396 223.623 16.8239C223.623 14.8921 223.974 13.2058 224.674 11.7649C225.382 10.3241 226.364 9.20529 227.62 8.40841C228.884 7.61154 230.353 7.2131 232.027 7.2131C233.701 7.2131 235.166 7.61154 236.422 8.40841C237.685 9.20529 238.667 10.3241 239.368 11.7649C240.076 13.2058 240.43 14.8921 240.43 16.8239C240.43 18.7396 240.076 20.4139 239.368 21.8466C238.667 23.2794 237.685 24.3942 236.422 25.1911C235.166 25.988 233.701 26.3864 232.027 26.3864ZM232.027 23.8267C233.299 23.8267 234.345 23.5007 235.166 22.8488C235.987 22.1968 236.595 21.3395 236.989 20.277C237.384 19.2145 237.581 18.0635 237.581 16.8239C237.581 15.5843 237.384 14.4292 236.989 13.3587C236.595 12.2881 235.987 11.4229 235.166 10.7628C234.345 10.1028 233.299 9.77276 232.027 9.77276C230.755 9.77276 229.709 10.1028 228.888 10.7628C228.067 11.4229 227.459 12.2881 227.065 13.3587C226.67 14.4292 226.473 15.5843 226.473 16.8239C226.473 18.0635 226.67 19.2145 227.065 20.277C227.459 21.3395 228.067 22.1968 228.888 22.8488C229.709 23.5007 230.755 23.8267 232.027 23.8267Z" fill="white"/>
<path d="M256.467 18.4176V7.45458H259.317V26H256.467V22.8608H256.274C255.84 23.8026 255.163 24.6035 254.246 25.2635C253.328 25.9155 252.169 26.2415 250.769 26.2415C249.609 26.2415 248.579 25.988 247.678 25.4809C246.776 24.9657 246.068 24.193 245.553 23.1627C245.037 22.1243 244.78 20.8163 244.78 19.2387V7.45458H247.629V19.0455C247.629 20.3978 248.008 21.4764 248.764 22.2813C249.529 23.0862 250.503 23.4887 251.686 23.4887C252.394 23.4887 253.115 23.3076 253.847 22.9453C254.588 22.5831 255.208 22.0277 255.707 21.2792C256.214 20.5306 256.467 19.5767 256.467 18.4176Z" fill="white"/>
<path d="M264.536 32.9546V7.45458H267.289V10.4006H267.627C267.836 10.0786 268.126 9.66812 268.496 9.16907C268.874 8.66197 269.414 8.21121 270.114 7.8168C270.822 7.41433 271.78 7.2131 272.987 7.2131C274.549 7.2131 275.925 7.60349 277.117 8.38427C278.308 9.16504 279.238 10.2718 279.906 11.7046C280.574 13.1373 280.908 14.8277 280.908 16.7756C280.908 18.7396 280.574 20.442 279.906 21.8828C279.238 23.3156 278.312 24.4264 277.129 25.2152C275.946 25.996 274.581 26.3864 273.036 26.3864C271.844 26.3864 270.891 26.1892 270.174 25.7948C269.458 25.3923 268.907 24.9375 268.52 24.4304C268.134 23.9153 267.836 23.4887 267.627 23.1506H267.385V32.9546H264.536ZM267.337 16.7273C267.337 18.1279 267.542 19.3634 267.953 20.434C268.363 21.4965 268.963 22.3296 269.752 22.9333C270.541 23.5289 271.506 23.8267 272.649 23.8267C273.841 23.8267 274.835 23.5128 275.632 22.885C276.437 22.2491 277.04 21.3959 277.443 20.3253C277.853 19.2467 278.058 18.0474 278.058 16.7273C278.058 15.4233 277.857 14.2481 277.455 13.2017C277.06 12.1473 276.461 11.3142 275.656 10.7024C274.859 10.0827 273.857 9.77276 272.649 9.77276C271.49 9.77276 270.516 10.0666 269.728 10.6542C268.939 11.2337 268.343 12.0467 267.941 13.0931C267.538 14.1314 267.337 15.3428 267.337 16.7273Z" fill="white"/>
</svg>
