<svg width="403" height="81" viewBox="0 0 403 81" fill="none" xmlns="http://www.w3.org/2000/svg">
<path d="M10.589 22.6163V68.1841H0.954834V22.6163H10.589Z" fill="white"/>
<path d="M48.7309 37.3458C48.4194 36.2629 47.9818 35.3062 47.4181 34.4755C46.8545 33.63 46.1647 32.918 45.3489 32.3395C44.5479 31.7462 43.6282 31.2938 42.5899 30.9823C41.5664 30.6708 40.4317 30.515 39.1857 30.515C36.8569 30.515 34.8099 31.0935 33.0447 32.2505C31.2944 33.4075 29.9297 35.0911 28.9507 37.3013C27.9717 39.4966 27.4822 42.1814 27.4822 45.3557C27.4822 48.53 27.9643 51.2297 28.9285 53.4547C29.8926 55.6797 31.2573 57.3781 33.0225 58.5499C34.7876 59.7069 36.8717 60.2854 39.2747 60.2854C41.4552 60.2854 43.3167 59.8997 44.8594 59.1284C46.4169 58.3422 47.6035 57.2371 48.4194 55.8131C49.25 54.3892 49.6654 52.7056 49.6654 50.7624L51.6233 51.0517H39.8754V43.7982H58.9436V49.5387C58.9436 53.5437 58.0981 56.985 56.4071 59.8626C54.7161 62.7254 52.3873 64.9356 49.4206 66.4931C46.454 68.0357 43.0572 68.8071 39.2302 68.8071C34.9582 68.8071 31.2054 67.8652 27.9717 65.9813C24.7381 64.0827 22.2164 61.3905 20.4068 57.9046C18.612 54.404 17.7145 50.2507 17.7145 45.4447C17.7145 41.7512 18.2485 38.4583 19.3165 35.5658C20.3994 32.6585 21.9124 30.1961 23.8555 28.1788C25.7987 26.1615 28.0607 24.6262 30.6417 23.5731C33.2227 22.5199 36.0188 21.9933 39.0299 21.9933C41.6109 21.9933 44.0139 22.3716 46.2389 23.1281C48.4639 23.8698 50.4367 24.9229 52.1574 26.2876C53.8928 27.6522 55.3094 29.2765 56.4071 31.1603C57.5047 33.0293 58.2093 35.0911 58.5208 37.3458H48.7309Z" fill="white"/>
<path d="M88.7973 22.6163V68.1841H83.2794V22.6163H88.7973Z" fill="white"/>
<path d="M104.4 47.6252V68.1841H99.1491V34.0083H104.222V39.3482H104.667C105.468 37.6128 106.684 36.2184 108.316 35.1653C109.948 34.0973 112.054 33.5633 114.635 33.5633C116.949 33.5633 118.974 34.0379 120.709 34.9873C122.445 35.9218 123.795 37.3458 124.759 39.2592C125.723 41.1579 126.205 43.5609 126.205 46.4682V68.1841H120.954V46.8242C120.954 44.1394 120.257 42.0479 118.862 40.5497C117.468 39.0367 115.555 38.2803 113.122 38.2803C111.446 38.2803 109.948 38.6437 108.628 39.3705C107.322 40.0973 106.291 41.1579 105.535 42.5522C104.778 43.9466 104.4 45.6375 104.4 47.6252Z" fill="white"/>
<path d="M162.522 34.0083L149.884 68.1841H144.544L131.906 34.0083H137.602L147.036 61.2421H147.392L156.826 34.0083H162.522Z" fill="white"/>
<path d="M182.558 68.8961C179.265 68.8961 176.425 68.1692 174.037 66.7156C171.663 65.2471 169.831 63.2001 168.541 60.5746C167.265 57.9343 166.627 54.8638 166.627 51.3632C166.627 47.8625 167.265 44.7772 168.541 42.1072C169.831 39.4224 171.626 37.3309 173.925 35.8328C176.239 34.3198 178.939 33.5633 182.024 33.5633C183.804 33.5633 185.562 33.8599 187.297 34.4533C189.033 35.0466 190.613 36.0108 192.037 37.3458C193.461 38.6659 194.595 40.4162 195.441 42.5967C196.286 44.7772 196.709 47.462 196.709 50.6512V52.8762H170.365V48.3372H191.369C191.369 46.4089 190.984 44.6882 190.212 43.1752C189.456 41.6622 188.373 40.4682 186.964 39.593C185.569 38.7178 183.923 38.2803 182.024 38.2803C179.933 38.2803 178.123 38.7994 176.595 39.8377C175.082 40.8612 173.918 42.1962 173.102 43.8427C172.286 45.4892 171.878 47.2544 171.878 49.1382V52.1642C171.878 54.7452 172.323 56.9331 173.213 58.7279C174.118 60.5079 175.372 61.8651 176.974 62.7996C178.576 63.7193 180.437 64.1791 182.558 64.1791C183.938 64.1791 185.184 63.9863 186.296 63.6006C187.424 63.2001 188.395 62.6068 189.211 61.8206C190.027 61.0196 190.657 60.0258 191.102 58.8391L196.175 60.2631C195.641 61.9838 194.744 63.4968 193.483 64.8021C192.222 66.0926 190.665 67.1013 188.81 67.8281C186.956 68.5401 184.872 68.8961 182.558 68.8961Z" fill="white"/>
<path d="M228.905 41.6622L224.188 42.9972C223.891 42.2111 223.454 41.4471 222.875 40.7055C222.311 39.949 221.54 39.326 220.561 38.8365C219.582 38.347 218.329 38.1023 216.801 38.1023C214.709 38.1023 212.966 38.5843 211.572 39.5485C210.193 40.4978 209.503 41.7067 209.503 43.1752C209.503 44.4805 209.978 45.5115 210.927 46.268C211.876 47.0245 213.36 47.6549 215.377 48.1592L220.45 49.4052C223.505 50.1469 225.782 51.2816 227.281 52.8094C228.779 54.3224 229.528 56.273 229.528 58.6611C229.528 60.6191 228.964 62.3694 227.837 63.9121C226.724 65.4548 225.167 66.6711 223.164 67.5611C221.162 68.4511 218.833 68.8961 216.178 68.8961C212.692 68.8961 209.807 68.1396 207.523 66.6266C205.238 65.1136 203.792 62.9034 203.184 59.9961L208.168 58.7501C208.643 60.5895 209.54 61.9689 210.86 62.8886C212.195 63.8083 213.938 64.2681 216.089 64.2681C218.536 64.2681 220.479 63.7489 221.918 62.7106C223.372 61.6575 224.099 60.3966 224.099 58.9281C224.099 57.7415 223.683 56.7476 222.853 55.9467C222.022 55.1308 220.746 54.5227 219.026 54.1222L213.33 52.7872C210.2 52.0455 207.901 50.8959 206.432 49.3384C204.979 47.7661 204.252 45.8007 204.252 43.4422C204.252 41.5139 204.793 39.8081 205.876 38.3248C206.974 36.8414 208.465 35.677 210.348 34.8315C212.247 33.986 214.398 33.5633 216.801 33.5633C220.183 33.5633 222.838 34.3049 224.766 35.7883C226.709 37.2716 228.089 39.2296 228.905 41.6622Z" fill="white"/>
<path d="M252.295 34.0083V38.4583H234.584V34.0083H252.295ZM239.746 25.8203H244.997V58.3941C244.997 59.8775 245.212 60.99 245.642 61.7316C246.087 62.4584 246.651 62.9479 247.333 63.2001C248.03 63.4374 248.765 63.5561 249.536 63.5561C250.114 63.5561 250.589 63.5264 250.96 63.4671C251.331 63.3929 251.627 63.3336 251.85 63.2891L252.918 68.0061C252.562 68.1396 252.065 68.2731 251.427 68.4066C250.789 68.5549 249.981 68.6291 249.002 68.6291C247.519 68.6291 246.065 68.3102 244.641 67.6723C243.232 67.0345 242.06 66.0629 241.125 64.7576C240.206 63.4523 239.746 61.8058 239.746 59.8181V25.8203Z" fill="white"/>
<path d="M260.194 68.1841V34.0083H265.267V39.3482H265.712C266.424 37.5238 267.573 36.1072 269.16 35.0985C270.747 34.075 272.654 33.5633 274.879 33.5633C277.133 33.5633 279.01 34.075 280.508 35.0985C282.021 36.1072 283.2 37.5238 284.045 39.3482H284.401C285.277 37.5831 286.589 36.1813 288.34 35.143C290.09 34.0899 292.189 33.5633 294.636 33.5633C297.692 33.5633 300.191 34.52 302.135 36.4335C304.078 38.3322 305.049 41.2914 305.049 45.3112V68.1841H299.798V45.3112C299.798 42.7896 299.109 40.9873 297.729 39.9045C296.35 38.8217 294.725 38.2803 292.856 38.2803C290.453 38.2803 288.592 39.0071 287.272 40.4607C285.952 41.8996 285.291 43.7241 285.291 45.9342V68.1841H279.952V44.7772C279.952 42.8341 279.321 41.2692 278.06 40.0825C276.799 38.881 275.175 38.2803 273.188 38.2803C271.823 38.2803 270.547 38.6437 269.361 39.3705C268.189 40.0973 267.239 41.106 266.513 42.3965C265.801 43.6721 265.445 45.148 265.445 46.8242V68.1841H260.194Z" fill="white"/>
<path d="M328.979 68.8961C325.686 68.8961 322.846 68.1692 320.457 66.7156C318.084 65.2471 316.252 63.2001 314.962 60.5746C313.686 57.9343 313.048 54.8638 313.048 51.3632C313.048 47.8625 313.686 44.7772 314.962 42.1072C316.252 39.4224 318.047 37.3309 320.346 35.8328C322.66 34.3198 325.36 33.5633 328.445 33.5633C330.225 33.5633 331.983 33.8599 333.718 34.4533C335.454 35.0466 337.034 36.0108 338.458 37.3458C339.882 38.6659 341.016 40.4162 341.862 42.5967C342.707 44.7772 343.13 47.462 343.13 50.6512V52.8762H316.786V48.3372H337.79C337.79 46.4089 337.404 44.6882 336.633 43.1752C335.877 41.6622 334.794 40.4682 333.385 39.593C331.99 38.7178 330.344 38.2803 328.445 38.2803C326.354 38.2803 324.544 38.7994 323.016 39.8377C321.503 40.8612 320.339 42.1962 319.523 43.8427C318.707 45.4892 318.299 47.2544 318.299 49.1382V52.1642C318.299 54.7452 318.744 56.9331 319.634 58.7279C320.539 60.5079 321.792 61.8651 323.394 62.7996C324.996 63.7193 326.858 64.1791 328.979 64.1791C330.359 64.1791 331.605 63.9863 332.717 63.6006C333.844 63.2001 334.816 62.6068 335.632 61.8206C336.448 61.0196 337.078 60.0258 337.523 58.8391L342.596 60.2631C342.062 61.9838 341.165 63.4968 339.904 64.8021C338.643 66.0926 337.085 67.1013 335.231 67.8281C333.377 68.5401 331.293 68.8961 328.979 68.8961Z" fill="white"/>
<path d="M356.369 47.6252V68.1841H351.118V34.0083H356.191V39.3482H356.636C357.437 37.6128 358.653 36.2184 360.285 35.1653C361.916 34.0973 364.023 33.5633 366.604 33.5633C368.918 33.5633 370.942 34.0379 372.678 34.9873C374.413 35.9218 375.763 37.3458 376.727 39.2592C377.691 41.1579 378.174 43.5609 378.174 46.4682V68.1841H372.923V46.8242C372.923 44.1394 372.225 42.0479 370.831 40.5497C369.437 39.0367 367.523 38.2803 365.091 38.2803C363.414 38.2803 361.916 38.6437 360.596 39.3705C359.291 40.0973 358.26 41.1579 357.503 42.5522C356.747 43.9466 356.369 45.6375 356.369 47.6252Z" fill="white"/>
<path d="M402.632 34.0083V38.4583H384.921V34.0083H402.632ZM390.083 25.8203H395.334V58.3941C395.334 59.8775 395.549 60.99 395.979 61.7316C396.424 62.4584 396.988 62.9479 397.67 63.2001C398.367 63.4374 399.101 63.5561 399.873 63.5561C400.451 63.5561 400.926 63.5264 401.297 63.4671C401.668 63.3929 401.964 63.3336 402.187 63.2891L403.255 68.0061C402.899 68.1396 402.402 68.2731 401.764 68.4066C401.126 68.5549 400.318 68.6291 399.339 68.6291C397.855 68.6291 396.402 68.3102 394.978 67.6723C393.569 67.0345 392.397 66.0629 391.462 64.7576C390.543 63.4523 390.083 61.8058 390.083 59.8181V25.8203Z" fill="white"/>
<path d="M460.014 36.8563C459.525 35.3581 458.879 34.0157 458.078 32.829C457.292 31.6275 456.35 30.604 455.253 29.7586C454.17 28.9131 452.939 28.2678 451.559 27.8228C450.18 27.3778 448.667 27.1553 447.02 27.1553C444.321 27.1553 441.866 27.8525 439.656 29.2468C437.445 30.6411 435.688 32.6955 434.382 35.41C433.077 38.1245 432.424 41.4546 432.424 45.4002C432.424 49.3459 433.084 52.6759 434.405 55.3904C435.725 58.1049 437.512 60.1593 439.767 61.5536C442.021 62.9479 444.558 63.6451 447.376 63.6451C449.987 63.6451 452.286 63.0889 454.274 61.9764C456.276 60.849 457.834 59.2619 458.946 57.2149C460.073 55.1531 460.637 52.7278 460.637 49.9392L462.328 50.2952H448.622V45.4002H465.977V50.2952C465.977 54.048 465.176 57.3113 463.574 60.0851C461.987 62.8589 459.792 65.0098 456.988 66.5376C454.2 68.0506 450.996 68.8071 447.376 68.8071C443.342 68.8071 439.796 67.8577 436.741 65.9591C433.7 64.0604 431.327 61.3608 429.621 57.8601C427.93 54.3595 427.084 50.2062 427.084 45.4002C427.084 41.7957 427.566 38.5547 428.531 35.677C429.51 32.7845 430.889 30.3222 432.669 28.2901C434.449 26.2579 436.555 24.7004 438.988 23.6176C441.421 22.5348 444.098 21.9933 447.02 21.9933C449.423 21.9933 451.663 22.3568 453.74 23.0836C455.831 23.7956 457.693 24.8117 459.324 26.1318C460.971 27.4371 462.343 29.0021 463.441 30.8265C464.538 32.6362 465.295 34.6461 465.71 36.8563H460.014Z" fill="white"/>
<path d="M488.6 68.8961C485.514 68.8961 482.807 68.1618 480.478 66.6933C478.164 65.2248 476.355 63.1704 475.05 60.5301C473.759 57.8898 473.114 54.8045 473.114 51.2742C473.114 47.7142 473.759 44.6066 475.05 41.9515C476.355 39.2963 478.164 37.2345 480.478 35.766C482.807 34.2975 485.514 33.5633 488.6 33.5633C491.685 33.5633 494.385 34.2975 496.699 35.766C499.027 37.2345 500.837 39.2963 502.128 41.9515C503.433 44.6066 504.086 47.7142 504.086 51.2742C504.086 54.8045 503.433 57.8898 502.128 60.5301C500.837 63.1704 499.027 65.2248 496.699 66.6933C494.385 68.1618 491.685 68.8961 488.6 68.8961ZM488.6 64.1791C490.943 64.1791 492.872 63.5784 494.385 62.3769C495.898 61.1754 497.018 59.5956 497.744 57.6376C498.471 55.6797 498.835 53.5585 498.835 51.2742C498.835 48.9899 498.471 46.8613 497.744 44.8885C497.018 42.9156 495.898 41.3211 494.385 40.1047C492.872 38.8884 490.943 38.2803 488.6 38.2803C486.256 38.2803 484.328 38.8884 482.815 40.1047C481.302 41.3211 480.182 42.9156 479.455 44.8885C478.728 46.8613 478.365 48.9899 478.365 51.2742C478.365 53.5585 478.728 55.6797 479.455 57.6376C480.182 59.5956 481.302 61.1754 482.815 62.3769C484.328 63.5784 486.256 64.1791 488.6 64.1791Z" fill="white"/>
<path d="M533.639 54.2112V34.0083H538.89V68.1841H533.639V62.3991H533.283C532.482 64.1346 531.236 65.6105 529.545 66.8268C527.854 68.0283 525.718 68.6291 523.137 68.6291C521.001 68.6291 519.102 68.1618 517.441 67.2273C515.78 66.278 514.474 64.854 513.525 62.9554C512.576 61.0419 512.101 58.6315 512.101 55.7242V34.0083H517.352V55.3682C517.352 57.8601 518.049 59.8478 519.444 61.3311C520.853 62.8144 522.648 63.5561 524.828 63.5561C526.133 63.5561 527.461 63.2224 528.811 62.5549C530.175 61.8874 531.318 60.8639 532.237 59.4844C533.172 58.1049 533.639 56.3471 533.639 54.2112Z" fill="white"/>
<path d="M548.507 81V34.0083H553.58V39.4372H554.203C554.589 38.8439 555.123 38.0874 555.805 37.1678C556.503 36.2333 557.496 35.4026 558.787 34.6758C560.092 33.9341 561.857 33.5633 564.082 33.5633C566.96 33.5633 569.497 34.2827 571.692 35.7215C573.887 37.1603 575.6 39.1999 576.832 41.8402C578.063 44.4805 578.678 47.5955 578.678 51.1852C578.678 54.8045 578.063 57.9417 576.832 60.5969C575.6 63.2372 573.895 65.2842 571.714 66.7378C569.534 68.1767 567.019 68.8961 564.171 68.8961C561.976 68.8961 560.218 68.5327 558.898 67.8058C557.578 67.0642 556.562 66.2261 555.85 65.2916C555.138 64.3423 554.589 63.5561 554.203 62.9331H553.758V81H548.507ZM553.669 51.0962C553.669 53.6772 554.048 55.9541 554.804 57.9269C555.561 59.8849 556.666 61.4201 558.119 62.5326C559.573 63.6303 561.353 64.1791 563.459 64.1791C565.655 64.1791 567.487 63.6006 568.955 62.4436C570.438 61.2718 571.551 59.6995 572.293 57.7266C573.049 55.739 573.427 53.5288 573.427 51.0962C573.427 48.6932 573.056 46.5275 572.315 44.5992C571.588 42.6561 570.483 41.1208 569 39.9935C567.531 38.8513 565.684 38.2803 563.459 38.2803C561.323 38.2803 559.529 38.8217 558.075 39.9045C556.621 40.9725 555.524 42.4706 554.782 44.399C554.04 46.3125 553.669 48.5449 553.669 51.0962Z" fill="white"/>
<circle cx="5.64515" cy="4.60703" r="4.60703" fill="white"/>
<circle cx="36.973" cy="4.60703" r="4.60703" fill="white"/>
</svg>
