<svg
    xmlns="http://www.w3.org/2000/svg"
    viewBox="0 0 825 589"
    width="825"
    height="589"
    preserveAspectRatio="xMidYMid meet"
    style="width: 100%; height: 100%; transform: translate3d(0px, 0px, 0px)"
  >
    <defs>
      <clipPath id="__lottie_element_13">
        <rect width="825" height="589" x="0" y="0"></rect>
      </clipPath>
    </defs>
    <g clip-path="url(#__lottie_element_13)">
      <g
        transform="matrix(2.819999933242798,0,0,2.819999933242798,141.80712890625,11.795002937316895)"
        opacity="0.84"
        style="display: block"
      >
        <g opacity="1" transform="matrix(1,0,0,1,100.25,100.25)">
          <path
            fill="rgb(246,243,236)"
            fill-opacity="1"
            d=" M0,-100 C55.229000091552734,-100 100,-55.229000091552734 100,0 C100,55.229000091552734 55.229000091552734,100 0,100 C-55.229000091552734,100 -100,55.229000091552734 -100,0 C-100,-55.229000091552734 -55.229000091552734,-100 0,-100z"
          ></path>
        </g>
      </g>
      <g
        transform="matrix(2.819999933242798,0,0,2.819999933242798,17.874940872192383,11.09000301361084)"
        opacity="0.8300000000000001"
        style="mix-blend-mode: difference; display: block"
      >
        <g opacity="1" transform="matrix(1,0,0,1,100.5,100.5)">
          <path
            stroke-linecap="butt"
            stroke-linejoin="miter"
            fill-opacity="0"
            stroke-miterlimit="4"
            stroke="rgb(246,243,236)"
            stroke-opacity="1"
            stroke-width="1"
            d=" M0,-99.5 C54.95199966430664,-99.5 99.5,-54.95199966430664 99.5,0 C99.5,54.95199966430664 54.95199966430664,99.5 0,99.5 C-54.95199966430664,99.5 -99.5,54.95199966430664 -99.5,0 C-99.5,-54.95199966430664 -54.95199966430664,-99.5 0,-99.5z"
          ></path>
        </g>
      </g>
      <g
        fill="rgb(255,255,255)"
        font-size="11"
        font-family="Coolvetica"
        font-style="normal"
        font-weight="400"
        aria-label="01_version 2"
        transform="matrix(2.5,0,0,2.5,-457.9100036621094,-121.8800048828125)"
        opacity="1"
        style="display: block"
      >
        <path
          stroke-linecap="butt"
          stroke-linejoin="round"
          stroke-miterlimit="4"
          d=" M2.74,-0.91 C2.04,-0.91 1.68,-1.64 1.68,-3.69 C1.68,-5.72 2.04,-6.45 2.74,-6.45 C3.43,-6.45 3.78,-5.71 3.78,-3.67 C3.78,-1.66 3.43,-0.91 2.74,-0.91z M2.69,0.25 C4.28,0.25 5.24,-1 5.24,-3.73 C5.24,-6.47 4.28,-7.6 2.69,-7.6 C1.11,-7.6 0.19,-6.47 0.19,-3.71 C0.19,-0.94 1.11,0.25 2.69,0.25z M10.69,0 C10.69,0 10.69,-7.36 10.69,-7.36 C10.69,-7.36 9.52,-7.36 9.52,-7.36 C9.43,-6.5 9.01,-6.08 7.74,-6.08 C7.74,-6.08 7.74,-5.08 7.74,-5.08 C7.74,-5.08 9.25,-5.08 9.25,-5.08 C9.25,-5.08 9.25,0 9.25,0 C9.25,0 10.69,0 10.69,0z M18.64,1.4 C18.64,1.4 18.64,0.75 18.64,0.75 C18.64,0.75 13.27,0.75 13.27,0.75 C13.27,0.75 13.27,1.4 13.27,1.4 C13.27,1.4 18.64,1.4 18.64,1.4z M24.32,0 C24.32,0 26.28,-5.45 26.28,-5.45 C26.28,-5.45 24.77,-5.45 24.77,-5.45 C24.77,-5.45 23.61,-1.85 23.61,-1.85 C23.61,-1.85 22.47,-5.45 22.47,-5.45 C22.47,-5.45 20.87,-5.45 20.87,-5.45 C20.87,-5.45 22.82,0 22.82,0 C22.82,0 24.32,0 24.32,0z M30.31,-3.26 C30.36,-4.01 30.84,-4.45 31.41,-4.45 C31.98,-4.45 32.51,-4.07 32.53,-3.26 C32.53,-3.26 30.31,-3.26 30.31,-3.26z M34.02,-2.35 C34.02,-4.51 33.13,-5.59 31.46,-5.59 C29.78,-5.59 28.82,-4.51 28.82,-2.82 C28.82,-0.85 29.73,0.14 31.55,0.14 C32.71,0.14 33.61,-0.49 33.94,-1.61 C33.94,-1.61 32.45,-1.61 32.45,-1.61 C32.36,-1.23 31.95,-1 31.48,-1 C30.77,-1 30.31,-1.53 30.26,-2.35 C30.26,-2.35 34.02,-2.35 34.02,-2.35z M38.23,0 C38.23,0 38.23,-2.84 38.23,-2.84 C38.23,-3.71 38.66,-4.15 39.54,-4.15 C39.68,-4.15 39.81,-4.14 39.94,-4.12 C39.94,-4.12 39.94,-5.59 39.94,-5.59 C39.94,-5.59 39.75,-5.59 39.75,-5.59 C39.17,-5.59 38.61,-5.53 38.14,-4.8 C38.14,-4.8 38.14,-5.45 38.14,-5.45 C38.14,-5.45 36.79,-5.45 36.79,-5.45 C36.79,-5.45 36.79,0 36.79,0 C36.79,0 38.23,0 38.23,0z M47.29,-3.8 C47.21,-4.97 46.5,-5.59 44.93,-5.59 C43.27,-5.59 42.64,-4.9 42.64,-3.98 C42.64,-3.49 42.82,-3.07 43.32,-2.75 C43.71,-2.5 44.22,-2.35 45.14,-2.13 C45.61,-2.02 46.02,-1.89 46.02,-1.51 C46.02,-1.1 45.56,-0.94 45.05,-0.94 C44.36,-0.94 43.92,-1.24 43.92,-1.75 C43.92,-1.75 42.44,-1.75 42.44,-1.75 C42.46,-0.64 43.39,0.14 45.06,0.14 C46.62,0.14 47.45,-0.53 47.45,-1.66 C47.45,-2.37 47.12,-2.75 46.55,-2.98 C46.13,-3.15 45.54,-3.27 44.92,-3.45 C44.33,-3.61 44.03,-3.74 44.03,-4.07 C44.03,-4.39 44.34,-4.52 44.89,-4.52 C45.54,-4.52 45.83,-4.33 45.91,-3.8 C45.91,-3.8 47.29,-3.8 47.29,-3.8z M51.6,0 C51.6,0 51.6,-5.45 51.6,-5.45 C51.6,-5.45 50.16,-5.45 50.16,-5.45 C50.16,-5.45 50.16,0 50.16,0 C50.16,0 51.6,0 51.6,0z M51.6,-6.1 C51.6,-6.1 51.6,-7.44 51.6,-7.44 C51.6,-7.44 50.16,-7.44 50.16,-7.44 C50.16,-7.44 50.16,-6.1 50.16,-6.1 C50.16,-6.1 51.6,-6.1 51.6,-6.1z M57.23,-1.06 C56.36,-1.06 55.91,-1.62 55.91,-2.73 C55.91,-3.83 56.36,-4.38 57.23,-4.38 C58.11,-4.38 58.55,-3.83 58.55,-2.73 C58.55,-1.62 58.11,-1.06 57.23,-1.06z M57.23,0.14 C58.93,0.14 60,-1 60,-2.73 C60,-4.46 58.94,-5.59 57.23,-5.59 C55.5,-5.59 54.43,-4.45 54.43,-2.73 C54.43,-1.03 55.47,0.14 57.23,0.14z M67.73,0 C67.73,0 67.73,-3.78 67.73,-3.78 C67.73,-4.96 66.97,-5.59 65.93,-5.59 C65.05,-5.59 64.5,-5.26 64.16,-4.65 C64.16,-4.65 64.16,-5.45 64.16,-5.45 C64.16,-5.45 62.79,-5.45 62.79,-5.45 C62.79,-5.45 62.79,0 62.79,0 C62.79,0 64.23,0 64.23,0 C64.23,0 64.23,-3.12 64.23,-3.12 C64.23,-3.95 64.6,-4.38 65.35,-4.38 C66.04,-4.38 66.28,-4.14 66.28,-3.3 C66.28,-3.3 66.28,0 66.28,0 C66.28,0 67.73,0 67.73,0z M80.36,0 C80.36,0 80.36,-1.25 80.36,-1.25 C80.36,-1.25 77.19,-1.25 77.19,-1.25 C77.22,-1.63 77.64,-2.16 78.21,-2.57 C79.78,-3.69 80.34,-4.33 80.34,-5.45 C80.34,-6.9 79.33,-7.6 77.84,-7.6 C76.34,-7.6 75.45,-6.65 75.45,-5.06 C75.45,-5.06 76.83,-5.06 76.83,-5.06 C76.83,-6.05 77.26,-6.37 77.91,-6.37 C78.47,-6.37 78.93,-6.15 78.93,-5.41 C78.93,-4.79 78.62,-4.41 77.57,-3.66 C75.68,-2.3 75.36,-1.36 75.35,0 C75.35,0 80.36,0 80.36,0z"
          style="display: inherit"
        ></path>
      </g>
    </g>
  </svg>